<svg id="Layer_1" data-name="Layer 1" xmlns="http://www.w3.org/2000/svg" viewBox="0 0 66.72 58.72"><defs><style>.cls-1{fill:#fff;}</style></defs><path class="cls-1" d="M26.39,47.13a4.83,4.83,0,1,1,4.83-4.83A4.83,4.83,0,0,1,26.39,47.13Z"/><path class="cls-1" d="M48.08,47.13a4.83,4.83,0,1,1,4.83-4.83A4.84,4.84,0,0,1,48.08,47.13Z"/><path class="cls-1" d="M48.08,43.05H27.46a1.83,1.83,0,0,1-1.73-2.38l2.77-6.8a.74.74,0,1,1,1.38.56l-2.75,6.75a.36.36,0,0,0,.07.24.31.31,0,0,0,.26.14H48.08a.74.74,0,0,1,.74.74A.75.75,0,0,1,48.08,43.05Z"/><path class="cls-1" d="M54.43,16A1.8,1.8,0,0,0,53,15.23h-31l-1.46-3.35a.72.72,0,0,0-.68-.44h-6.9a.74.74,0,0,0-.74.74.75.75,0,0,0,.74.75h6.41L28.4,33.8a1.83,1.83,0,0,0,1.67,1.1H47.91a1.81,1.81,0,0,0,1.73-1.28l5.06-16A1.77,1.77,0,0,0,54.43,16Zm-8,14.62H31.16a.76.76,0,0,1-.75-.75.75.75,0,0,1,.75-.74H46.39a.74.74,0,0,1,.74.74A.75.75,0,0,1,46.39,30.59Zm1.3-4.71H29.86a.75.75,0,0,1-.75-.74.76.76,0,0,1,.75-.75H47.69a.75.75,0,0,1,.74.75A.74.74,0,0,1,47.69,25.88Zm1.06-4.7h-20a.75.75,0,0,1,0-1.49h20a.75.75,0,1,1,0,1.49Z"/><path class="cls-1" d="M14.29,12.24a1.18,1.18,0,1,1-2.35,0,1.18,1.18,0,0,1,2.35,0Z"/></svg>