<?xml version="1.0" encoding="utf-8"?>
<!-- Generator: Adobe Illustrator 25.2.1, SVG Export Plug-In . SVG Version: 6.00 Build 0)  -->
<svg version="1.1" id="Слой_1" xmlns="http://www.w3.org/2000/svg" xmlns:xlink="http://www.w3.org/1999/xlink" x="0px" y="0px"
	 viewBox="0 0 411.6 148.1" style="enable-background:new 0 0 411.6 148.1;" xml:space="preserve">
<style type="text/css">
	.st0{fill:#00097C;stroke:#00097C;stroke-width:2;stroke-miterlimit:10;}
	.st1{fill:#FFFFFF;}
	.st2{font-family:'GillSansC';}
	.st3{font-size:22.2463px;}
	.st4{opacity:0.2;}
	.st5{fill:#000072;}
	.st6{fill:#61D118;}
	.st7{fill:#24700F;}
	.st8{fill:#49AF08;}
	.st9{opacity:0.5;}
	.st10{fill:#88D82A;}
	.st11{fill:#FFF27D;}
	.st12{fill:#D8D8D8;}
	.st13{fill:#B5B5B5;}
	.st14{fill:#AAAAAA;}
	.st15{opacity:0.7;}
	.st16{fill:#939393;}
	.st17{fill:#289604;}
	.st18{fill:#52B711;}
	.st19{fill:#C8CACE;}
	.st20{fill:#D6D6D6;}
	.st21{opacity:0.35;}
	.st22{fill:#4DA2FF;}
	.st23{fill:#595959;}
	.st24{fill:#999999;}
	.st25{fill:#7F7F7F;}
	.st26{fill:#777777;}
	.st27{fill:#57BC15;}
	.st28{fill:#686868;}
	.st29{fill:#545354;}
	.st30{fill:#B3E538;}
</style>
<g>
	<path class="st0" d="M11.9,35.8c0.1-6.6,2.5-12.1,7.3-16.5c4.8-4.4,10.7-6.6,17.6-6.6c6.5,0,12.1,1.4,16.8,4.1
		c4.7,2.7,7.4,5.8,8.1,9.1c0,0.2,0,0.4,0.1,0.6c0,0.2,0.1,0.5,0.1,0.7v8.6c0,3.3-1.1,6-3.2,8.3c-2.2,2.3-4.8,3.4-7.9,3.4
		c-3.2,0-5.9-1.2-8.1-3.5c-2.2-2.3-3.3-5.2-3.3-8.5c0-3.3-1-6-2.9-8.3c-1.9-2.3-4.3-3.4-7.1-3.4c-3.5,0-6.3,0.9-8.3,2.6
		c-2,1.7-3,4.6-3,8.8c0,2.5,0.9,4.6,2.7,6.5c1.8,1.8,4.4,3.3,7.7,4.5c1.8,0.5,4,1.4,6.7,2.6c2.7,1.2,5.5,2.7,8.4,4.5
		c4.6,2.6,8.8,5.9,12.5,9.7c3.8,3.8,5.7,8,5.7,12.5v10.8c-0.1,6.5-2.5,12-7.3,16.4c-4.8,4.4-10.7,6.6-17.6,6.6
		c-6.3,0-11.8-1.3-16.5-3.9c-4.7-2.6-7.4-5.5-8.2-8.7C12.1,96.3,12,96,12,95.8c0-0.3-0.1-0.5-0.1-0.8v-8.7c0-3.3,1.1-6,3.2-8.3
		c2.2-2.3,4.8-3.4,7.9-3.4c3.2,0,5.9,1.1,8.1,3.4c2.2,2.3,3.3,5.1,3.3,8.5c0,3.3,1,6,3,8.3c2,2.3,4.3,3.4,7.1,3.4
		c3.5,0,6.3-0.9,8.3-2.6c2-1.7,3-4.6,3-8.7c0-2.5-0.9-4.6-2.7-6.5c-1.8-1.9-4.4-3.4-7.7-4.6c-1.8-0.5-4-1.4-6.7-2.5
		c-2.7-1.1-5.5-2.6-8.5-4.2c-4.6-2.6-8.8-5.7-12.5-9.3c-3.8-3.7-5.7-7.7-5.7-12.1L11.9,35.8z"/>
	<path class="st0" d="M73,47.7h-2.4c-1.1,0-2.1-0.4-2.9-1.2s-1.2-1.8-1.2-2.9c0-1.1,0.4-2.1,1.2-3c0.8-0.8,1.8-1.3,2.9-1.3H73
		c4,0,7.6-1.3,10.7-4c3.1-2.6,4.6-6.5,4.6-11.6v-3c0-1.9,0.3-3.6,1-5c0.7-1.4,1.5-2,2.4-2c1,0,1.8,0.7,2.5,2c0.7,1.4,1.1,3,1.1,5
		v18.6h2.4c1.1,0,2.1,0.4,2.9,1.3c0.8,0.8,1.2,1.8,1.2,3c0,1.1-0.4,2.1-1.2,2.9c-0.8,0.8-1.8,1.2-2.9,1.2h-2.4v50.6
		c0,2.7-1,5.1-3,7.1c-2,2-4.8,3-8.2,3c-3.3,0-6-1-8.1-3c-2-2-3-4.3-3-7.1V47.7z"/>
	<path class="st0" d="M150,45.2c4.9,3.4,7.3,7.6,7.3,12.5v33c0,4.8-2.4,9-7.3,12.6s-10.9,5.3-17.9,5.3c-7,0-12.9-1.8-17.8-5.3
		c-4.9-3.6-7.4-7.8-7.4-12.6v-33c0-4.9,2.5-9.1,7.4-12.5c4.9-3.4,10.9-5.1,17.8-5.1C139.2,40.2,145.1,41.9,150,45.2z M131.9,54.6
		c-1.8,2.8-2.7,6.1-2.7,10v19.7c0,3.9,0.9,7.2,2.7,10c1.8,2.8,4.4,4.2,7.9,4.2c3.4,0,6.1-1.4,7.9-4.2c1.8-2.8,2.7-6.1,2.7-10V64.6
		c0-3.9-0.9-7.2-2.7-10c-1.8-2.8-4.4-4.2-7.9-4.2C136.4,50.5,133.7,51.9,131.9,54.6z"/>
	<path class="st0" d="M204.5,44.5c4.5,3.4,6.8,7.6,6.8,12.5v16.6c0,4.8-0.9,8.3-2.6,10.3c-1.7,2-3.6,3.2-5.7,3.6
		c-0.4,0.1-0.7,0.2-1.1,0.2c-0.4,0-0.8,0.1-1.1,0.1c-0.4,0-0.9,0-1.4-0.1c-0.5-0.1-1-0.2-1.5-0.3c-1.9-0.6-3.7-1.8-5.3-3.5
		c-1.6-1.7-2.4-4.1-2.4-7.1c0-3.3,0.8-5.5,2.4-6.5c1.6-1,3.3-1.7,5.3-2.2c0.1,0,0.2,0,0.2,0c0,0,0.1,0,0.2,0c1.8-0.4,3.5-1.1,5-1.9
		c1.5-0.8,2.2-2.7,2.2-5.5c0-2.8-0.9-5.3-2.8-7.6c-1.8-2.2-4.5-3.4-7.9-3.4c-3.2,0-5.6,1-7.4,3.1c-1.8,2.1-2.8,4.3-3,6.8
		c0,0.2,0,0.4,0,0.5c0,0.2,0,0.4,0,0.5v33.2c0,3.8-1,7.1-3.1,10c-2.1,2.9-4.8,4.4-8.3,4.4c-3.3,0-6-1.5-8-4.4c-2-2.9-3-6.3-3-10
		V57.1c0-4.9,2.5-9.1,7.4-12.5c4.9-3.4,10.9-5.2,17.8-5.2C194.2,39.4,199.9,41.1,204.5,44.5z"/>
	<path class="st0" d="M261,45.2c4.2,3.6,6.3,7.8,6.3,12.7c0,5.5-1.4,9.8-4.2,13.1c-2.8,3.3-5.9,5.3-9.4,6c-0.4,0.1-0.9,0.2-1.3,0.2
		c-0.4,0-0.8,0.1-1.3,0.1h-16.4c-0.2,0-0.4,0-0.5,0c-0.2,0-0.4,0-0.5,0c-2.3,0.3-4.4,1.4-6.3,3.4c-1.9,2-2.8,4.6-2.8,8
		c0,3.3,1.1,5.7,3.4,7.3s4.8,2.4,7.6,2.4c2.8,0,5-0.7,6.5-2.2c1.5-1.5,2.5-3.2,3-5.2c0.7-2.9,2-5.3,4-7.2c2-1.9,4.4-2.8,7.3-2.8
		c3.1,0,5.6,0.9,7.7,2.7c2,1.8,3,4,3,6.5c0,5.3-2.4,9.7-7.3,13.1c-4.8,3.5-10.8,5.2-18,5.2c-7,0-12.9-1.7-17.8-5.2
		c-4.9-3.4-7.4-7.6-7.4-12.4V58c0-4.9,2.5-9.2,7.5-12.7c5-3.6,10.9-5.3,17.9-5.3C250.5,39.9,256.8,41.7,261,45.2z M250,69.6
		c2.6,0,5-1,6.9-3c2-2,3-4.9,3-8.6c0-2.4-0.8-4.4-2.4-6.2c-1.6-1.8-3.3-2.9-5.2-3.6c-0.4-0.1-0.9-0.2-1.3-0.3
		c-0.4-0.1-0.8-0.1-1.1-0.1h-0.1h-0.1c-3.4,0.1-6.1,1.5-7.9,4.2c-1.8,2.7-2.7,6-2.7,9.8v7.8H250z"/>
</g>
<g>
	<path class="st1" d="M12.1,31.4c0.1-6.6,2.5-12.1,7.3-16.5c4.8-4.4,10.7-6.6,17.6-6.6c6.5,0,12.1,1.4,16.8,4.1
		c4.7,2.7,7.4,5.8,8.1,9.1c0,0.2,0,0.4,0.1,0.6c0,0.2,0.1,0.5,0.1,0.7v8.6c0,3.3-1.1,6-3.2,8.3C56.7,42,54,43.1,51,43.1
		c-3.2,0-5.9-1.2-8.1-3.5c-2.2-2.3-3.3-5.2-3.3-8.5c0-3.3-1-6-2.9-8.3c-1.9-2.3-4.3-3.4-7.1-3.4c-3.5,0-6.3,0.9-8.3,2.6
		c-2,1.7-3,4.6-3,8.8c0,2.5,0.9,4.6,2.7,6.5c1.8,1.8,4.4,3.3,7.7,4.5c1.8,0.5,4,1.4,6.7,2.6c2.7,1.2,5.5,2.7,8.4,4.5
		c4.6,2.6,8.8,5.9,12.5,9.7c3.8,3.8,5.7,8,5.7,12.5v10.8c-0.1,6.5-2.5,12-7.3,16.4c-4.8,4.4-10.7,6.6-17.6,6.6
		c-6.3,0-11.8-1.3-16.5-3.9c-4.7-2.6-7.4-5.5-8.2-8.7c-0.1-0.4-0.2-0.7-0.2-0.9c0-0.3-0.1-0.5-0.1-0.8v-8.7c0-3.3,1.1-6,3.2-8.3
		c2.2-2.3,4.8-3.4,7.9-3.4c3.2,0,5.9,1.1,8.1,3.4c2.2,2.3,3.3,5.1,3.3,8.5c0,3.3,1,6,3,8.3c2,2.3,4.3,3.4,7.1,3.4
		c3.5,0,6.3-0.9,8.3-2.6c2-1.7,3-4.6,3-8.7c0-2.5-0.9-4.6-2.7-6.5c-1.8-1.9-4.4-3.4-7.7-4.6c-1.8-0.5-4-1.4-6.7-2.5
		c-2.7-1.1-5.5-2.6-8.5-4.2c-4.6-2.6-8.8-5.7-12.5-9.3c-3.8-3.7-5.7-7.7-5.7-12.1L12.1,31.4z"/>
	<path class="st1" d="M73.2,43.3h-2.4c-1.1,0-2.1-0.4-2.9-1.2s-1.2-1.8-1.2-2.9c0-1.1,0.4-2.1,1.2-3c0.8-0.8,1.8-1.3,2.9-1.3h2.4
		c4,0,7.6-1.3,10.7-4c3.1-2.6,4.6-6.5,4.6-11.6v-3c0-1.9,0.3-3.6,1-5c0.7-1.4,1.5-2,2.4-2c1,0,1.8,0.7,2.5,2c0.7,1.4,1.1,3,1.1,5
		v18.6h2.4c1.1,0,2.1,0.4,2.9,1.3c0.8,0.8,1.2,1.8,1.2,3c0,1.1-0.4,2.1-1.2,2.9c-0.8,0.8-1.8,1.2-2.9,1.2h-2.4v50.6
		c0,2.7-1,5.1-3,7.1c-2,2-4.8,3-8.2,3c-3.3,0-6-1-8.1-3c-2-2-3-4.3-3-7.1V43.3z"/>
	<path class="st1" d="M150.2,40.8c4.9,3.4,7.3,7.6,7.3,12.5v33c0,4.8-2.4,9-7.3,12.6s-10.9,5.3-17.9,5.3c-7,0-12.9-1.8-17.8-5.3
		c-4.9-3.6-7.4-7.8-7.4-12.6v-33c0-4.9,2.5-9.1,7.4-12.5c4.9-3.4,10.9-5.1,17.8-5.1C139.4,35.7,145.3,37.4,150.2,40.8z M132.1,50.2
		c-1.8,2.8-2.7,6.1-2.7,10v19.7c0,3.9,0.9,7.2,2.7,10c1.8,2.8,4.4,4.2,7.9,4.2c3.4,0,6.1-1.4,7.9-4.2c1.8-2.8,2.7-6.1,2.7-10V60.2
		c0-3.9-0.9-7.2-2.7-10c-1.8-2.8-4.4-4.2-7.9-4.2C136.6,46,133.9,47.4,132.1,50.2z"/>
	<path class="st1" d="M204.7,40.1c4.5,3.4,6.8,7.6,6.8,12.5v16.6c0,4.8-0.9,8.3-2.6,10.3c-1.7,2-3.6,3.2-5.7,3.6
		c-0.4,0.1-0.7,0.2-1.1,0.2c-0.4,0-0.8,0.1-1.1,0.1c-0.4,0-0.9,0-1.4-0.1c-0.5-0.1-1-0.2-1.5-0.3c-1.9-0.6-3.7-1.8-5.3-3.5
		c-1.6-1.7-2.4-4.1-2.4-7.1c0-3.3,0.8-5.5,2.4-6.5c1.6-1,3.3-1.7,5.3-2.2c0.1,0,0.2,0,0.2,0c0,0,0.1,0,0.2,0c1.8-0.4,3.5-1.1,5-1.9
		c1.5-0.8,2.2-2.7,2.2-5.5c0-2.8-0.9-5.3-2.8-7.6c-1.8-2.2-4.5-3.4-7.9-3.4c-3.2,0-5.6,1-7.4,3.1c-1.8,2.1-2.8,4.3-3,6.8
		c0,0.2,0,0.4,0,0.5c0,0.2,0,0.4,0,0.5v33.2c0,3.8-1,7.1-3.1,10c-2.1,2.9-4.8,4.4-8.3,4.4c-3.3,0-6-1.5-8-4.4c-2-2.9-3-6.3-3-10
		V52.6c0-4.9,2.5-9.1,7.4-12.5c4.9-3.4,10.9-5.2,17.8-5.2C194.4,34.9,200.1,36.6,204.7,40.1z"/>
	<path class="st1" d="M261.2,40.8c4.2,3.6,6.3,7.8,6.3,12.7c0,5.5-1.4,9.8-4.2,13.1c-2.8,3.3-5.9,5.3-9.4,6
		c-0.4,0.1-0.9,0.2-1.3,0.2c-0.4,0-0.8,0.1-1.3,0.1h-16.4c-0.2,0-0.4,0-0.5,0c-0.2,0-0.4,0-0.5,0c-2.3,0.3-4.4,1.4-6.3,3.4
		c-1.9,2-2.8,4.6-2.8,8c0,3.3,1.1,5.7,3.4,7.3s4.8,2.4,7.6,2.4c2.8,0,5-0.7,6.5-2.2c1.5-1.5,2.5-3.2,3-5.2c0.7-2.9,2-5.3,4-7.2
		c2-1.9,4.4-2.8,7.3-2.8c3.1,0,5.6,0.9,7.7,2.7c2,1.8,3,4,3,6.5c0,5.3-2.4,9.7-7.3,13.1c-4.8,3.5-10.8,5.2-18,5.2
		c-7,0-12.9-1.7-17.8-5.2c-4.9-3.4-7.4-7.6-7.4-12.4v-33c0-4.9,2.5-9.2,7.5-12.7c5-3.6,10.9-5.3,17.9-5.3
		C250.7,35.5,257,37.2,261.2,40.8z M250.2,65.2c2.6,0,5-1,6.9-3c2-2,3-4.9,3-8.6c0-2.4-0.8-4.4-2.4-6.2c-1.6-1.8-3.3-2.9-5.2-3.6
		c-0.4-0.1-0.9-0.2-1.3-0.3c-0.4-0.1-0.8-0.1-1.1-0.1H250h-0.1c-3.4,0.1-6.1,1.5-7.9,4.2c-1.8,2.7-2.7,6-2.7,9.8v7.8H250.2z"/>
</g>
<text transform="matrix(1 0 0 1 16.7021 132.1545)" class="st1 st2 st3">FortniteApi.io</text>
<g>
	<g class="st4">
		<ellipse class="st5" cx="330.4" cy="129.2" rx="50.5" ry="8.8"/>
	</g>
	<g>
		<g>
			<path class="st6" d="M332.9,124.2c14.4,0.3,23.9,7,31.4,6.7c6.4-0.3-0.1-14.2-2.8-19.1c0,0-4.9-10.3-15-2"/>
		</g>
		<g>
			<path class="st7" d="M301.2,107.2c0,0,1.4-5.5,0-8.9c-1.5-3.7-6.5,3.2-6.5,3.2"/>
		</g>
		<g>
			<path class="st5" d="M301.2,108c-0.1,0-0.1,0-0.2,0c-0.4-0.1-0.6-0.5-0.5-0.9c0-0.1,1.3-5.3,0-8.5c-0.2-0.6-0.5-0.6-0.6-0.6
				c-1.1-0.1-3.4,2.3-4.6,3.9c-0.2,0.3-0.7,0.4-1,0.2c-0.3-0.2-0.4-0.7-0.2-1c0.6-0.8,3.6-4.8,6-4.5c0.5,0.1,1.3,0.4,1.8,1.5
				c1.5,3.6,0.1,9.2,0.1,9.4C301.8,107.8,301.5,108,301.2,108z"/>
		</g>
		<g>
			<path class="st7" d="M293.9,101.1c0,0,2.9-4.9,2.4-8.6c-0.5-3.9-7.1,1.3-7.1,1.3"/>
		</g>
		<g>
			<path class="st5" d="M293.9,101.8c-0.1,0-0.3,0-0.4-0.1c-0.4-0.2-0.5-0.7-0.3-1c0,0,2.7-4.7,2.3-8.1c-0.1-0.6-0.3-0.7-0.4-0.8
				c-1-0.4-3.9,1.2-5.6,2.5c-0.3,0.2-0.8,0.2-1-0.1c-0.2-0.3-0.2-0.8,0.1-1c0.8-0.6,4.8-3.6,7-2.7c0.5,0.2,1.1,0.7,1.3,1.9
				c0.4,3.9-2.4,8.9-2.5,9.1C294.4,101.7,294.2,101.8,293.9,101.8z"/>
		</g>
		<g>
			<path class="st8" d="M318.4,123.9c-12.1-0.6-29.7-6.4-32.7-21.6c-2.1-10.5,1.1-16.5,2.6-16.7c4-0.6,5.9,25.7,31.3,16.3"/>
		</g>
		<g>
			<path class="st8" d="M319.5,101.9l-0.6,12.6l-0.5,9.4c-12.1-0.6-29.7-6.4-32.7-21.6c-1.1-5.7-0.7-10.1,0.2-12.9l0,0
				c0.7-2.4,1.8-3.7,2.4-3.8C292.2,85.1,294.1,111.3,319.5,101.9"/>
		</g>
		<g>
			<path class="st6" d="M319.5,101.9l-0.6,12.6l-0.5,9.4c-10.6-0.5-25.6-5.1-31.1-16.5c-0.8-1.6-1.3-3.3-1.7-5.1
				c-1.1-5.7-0.7-10.1,0.2-12.9v0c0.7-2.4,1.8-3.7,2.4-3.8c3.1-0.4,4.9,15.5,17.8,18C309.6,104.3,314,104,319.5,101.9"/>
		</g>
		<g class="st9">
			<g>
				<g>
					<path class="st1" d="M319.5,101.9l-0.1,1.1c-5.4,2.1-9.7,2.5-13.3,2c-16.1-2.3-15.6-21.4-19.1-18.4c0.4-0.6,0.9-1,1.2-1
						c3.1-0.4,4.9,15.5,17.8,18C309.6,104.3,314,104,319.5,101.9"/>
				</g>
			</g>
		</g>
		<g class="st4">
			<path class="st5" d="M319.5,101.9l-0.6,12.6l-0.5,9.4c-10.6-0.5-25.6-5.1-31.1-16.5c5.2,2.4,12.2,3.4,18.6-3.8
				C309.6,104.3,314,104,319.5,101.9"/>
		</g>
		<g>
			<path class="st10" d="M318.9,114.5l-0.5,9.4c-0.2,0-0.3,0-0.5,0c-0.1,0-0.2,0-0.3,0c-0.2,0-0.5,0-0.7-0.1c-0.1,0-0.2,0-0.3,0
				c-0.1,0-0.2,0-0.3,0c-0.1,0-0.1,0-0.2,0c-0.1,0-0.3,0-0.4,0c0,0-0.1,0-0.1,0c-0.1,0-0.3,0-0.4,0c-0.7-0.1-1.3-0.2-2-0.3
				c-0.2,0-0.4-0.1-0.6-0.1c-0.2,0-0.4-0.1-0.6-0.1c-0.1,0-0.3-0.1-0.4-0.1c-0.1,0-0.3,0-0.4-0.1c-0.4-0.1-0.7-0.2-1.1-0.2
				c-0.2,0-0.4-0.1-0.6-0.1c-0.2,0-0.4-0.1-0.6-0.1c-0.2,0-0.4-0.1-0.6-0.1c-0.2,0-0.4-0.1-0.6-0.1c0,0,0,0,0,0
				c-0.1,0-0.3-0.1-0.4-0.1c-0.2,0-0.3-0.1-0.5-0.1c-0.1,0-0.3-0.1-0.4-0.1c-0.1,0-0.3-0.1-0.4-0.1c-0.2-0.1-0.3-0.1-0.5-0.2
				c-0.2-0.1-0.4-0.1-0.6-0.2c-0.4-0.1-0.8-0.3-1.2-0.4c-0.2-0.1-0.3-0.1-0.5-0.2c0,0,0,0-0.1,0c-0.2-0.1-0.4-0.1-0.5-0.2
				c-0.2-0.1-0.4-0.1-0.5-0.2c0,0,0,0-0.1,0c-0.1-0.1-0.3-0.1-0.4-0.2c-0.1,0-0.2-0.1-0.2-0.1c-0.1-0.1-0.2-0.1-0.4-0.2
				c-0.5-0.2-1.1-0.5-1.6-0.8c-0.1,0-0.2-0.1-0.2-0.1c-0.3-0.1-0.5-0.3-0.8-0.4c-0.2-0.1-0.3-0.2-0.5-0.3c0,0,0,0,0,0
				c-0.3-0.2-0.7-0.4-1-0.6c0,0,0,0,0,0c-0.1-0.1-0.2-0.1-0.2-0.2c-0.2-0.1-0.3-0.2-0.5-0.3c-0.1-0.1-0.2-0.1-0.3-0.2
				c-0.2-0.1-0.3-0.2-0.5-0.3c-0.2-0.1-0.3-0.2-0.5-0.3c-0.1-0.1-0.2-0.1-0.2-0.2c-0.2-0.1-0.3-0.2-0.5-0.4
				c-0.2-0.1-0.3-0.2-0.5-0.4c-0.2-0.2-0.5-0.4-0.7-0.6c-0.1-0.1-0.3-0.3-0.4-0.4c-0.9-0.8-1.7-1.6-2.4-2.5
				c-0.1-0.1-0.1-0.1-0.2-0.2c-0.1-0.1-0.2-0.3-0.4-0.5c-0.1-0.1-0.1-0.2-0.2-0.2c-0.1-0.1-0.1-0.2-0.2-0.2
				c-0.1-0.2-0.2-0.3-0.3-0.5c-0.1-0.1-0.1-0.2-0.2-0.2c-0.1-0.1-0.1-0.2-0.2-0.2c-0.1-0.2-0.2-0.4-0.3-0.5c0-0.1-0.1-0.1-0.1-0.2
				c0-0.1-0.1-0.2-0.1-0.3c-0.1-0.1-0.1-0.2-0.2-0.3c-0.1-0.2-0.2-0.3-0.3-0.5c-0.1-0.2-0.2-0.4-0.3-0.5c1.6,0.8,3.4,1.4,5.3,1.6
				C297.5,113.6,305.5,116.5,318.9,114.5"/>
		</g>
		<g>
			<path class="st11" d="M318.9,114.5l-0.5,9.4c-12.1-0.6-29.7-6.4-32.7-21.6c-1.1-5.7-0.7-10.1,0.2-12.9
				C285.4,91.1,284.1,119.8,318.9,114.5"/>
		</g>
		<g class="st4">
			<path class="st5" d="M318.9,114.5l-0.5,9.4c-0.2,0-0.3,0-0.5,0c-0.1,0-0.2,0-0.3,0c-0.2,0-0.5,0-0.7-0.1c-0.1,0-0.2,0-0.3,0
				c-0.1,0-0.2,0-0.3,0c-0.1,0-0.1,0-0.2,0c-0.1,0-0.3,0-0.4,0c0,0-0.1,0-0.1,0c-0.1,0-0.3,0-0.4,0c-0.7-0.1-1.3-0.2-2-0.3
				c-0.2,0-0.4-0.1-0.6-0.1c-0.2,0-0.4-0.1-0.6-0.1c-0.1,0-0.3-0.1-0.4-0.1c-0.1,0-0.3,0-0.4-0.1c-0.4-0.1-0.7-0.2-1.1-0.2
				c-0.2,0-0.4-0.1-0.6-0.1c-0.2,0-0.4-0.1-0.6-0.1c-0.2,0-0.4-0.1-0.6-0.1c-0.2,0-0.4-0.1-0.6-0.1c0,0,0,0,0,0
				c-0.1,0-0.3-0.1-0.4-0.1c-0.2,0-0.3-0.1-0.5-0.1c-0.1,0-0.3-0.1-0.4-0.1c-0.1,0-0.3-0.1-0.4-0.1c-0.2-0.1-0.3-0.1-0.5-0.2
				c-0.2-0.1-0.4-0.1-0.6-0.2c-0.4-0.1-0.8-0.3-1.2-0.4c-0.2-0.1-0.3-0.1-0.5-0.2c0,0,0,0-0.1,0c-0.2-0.1-0.4-0.1-0.5-0.2
				c-0.2-0.1-0.4-0.1-0.5-0.2c0,0,0,0-0.1,0c-0.1-0.1-0.3-0.1-0.4-0.2c-0.1,0-0.2-0.1-0.2-0.1c-0.1-0.1-0.2-0.1-0.4-0.2
				c-0.5-0.2-1.1-0.5-1.6-0.8c-0.1,0-0.2-0.1-0.2-0.1c-0.3-0.1-0.5-0.3-0.8-0.4c-0.2-0.1-0.3-0.2-0.5-0.3c0,0,0,0,0,0
				c-0.3-0.2-0.7-0.4-1-0.6c0,0,0,0,0,0c-0.1-0.1-0.2-0.1-0.2-0.2c-0.2-0.1-0.3-0.2-0.5-0.3c-0.1-0.1-0.2-0.1-0.3-0.2
				c-0.2-0.1-0.3-0.2-0.5-0.3c-0.2-0.1-0.3-0.2-0.5-0.3c-0.1-0.1-0.2-0.1-0.2-0.2c-0.2-0.1-0.3-0.2-0.5-0.4
				c-0.2-0.1-0.3-0.2-0.5-0.4c-0.2-0.2-0.5-0.4-0.7-0.6c-0.1-0.1-0.3-0.3-0.4-0.4c-0.9-0.8-1.7-1.6-2.4-2.5
				c-0.1-0.1-0.1-0.1-0.2-0.2c-0.1-0.1-0.2-0.3-0.4-0.5c-0.1-0.1-0.1-0.2-0.2-0.2c-0.1-0.1-0.1-0.2-0.2-0.2
				c-0.1-0.2-0.2-0.3-0.3-0.5c-0.1-0.1-0.1-0.2-0.2-0.2c-0.1-0.1-0.1-0.2-0.2-0.2c-0.1-0.2-0.2-0.4-0.3-0.5c0-0.1-0.1-0.1-0.1-0.2
				c0-0.1-0.1-0.2-0.1-0.3c-0.1-0.1-0.1-0.2-0.2-0.3c-0.1-0.2-0.2-0.3-0.3-0.5c-0.1-0.2-0.2-0.4-0.3-0.5c1.6,0.8,3.4,1.4,5.3,1.6
				C297.5,113.6,305.5,116.5,318.9,114.5"/>
		</g>
		<g>
			<path class="st5" d="M318.4,124.6c-7.1-0.3-14.4-2.3-20.1-5.4c-7.3-4-11.9-9.8-13.3-16.8c-1.6-8.1-0.1-13.8,1.6-16.3
				c0.5-0.7,1-1.1,1.6-1.2c1.6-0.2,2.5,1.7,4,4.6c3.5,6.9,9.2,18.3,27.2,11.7l0.5,1.3c-19.1,7.1-25.4-5.6-28.8-12.4
				c-0.9-1.8-2-4-2.6-3.9c-0.7,0.2-4.1,5.3-2,15.9c3.1,15.6,21.6,20.6,32.1,21.1L318.4,124.6z"/>
		</g>
		<g>
			<path class="st12" d="M358,47.3c0.2-1.2,0.2-2.4,0.2-3.6c0-15.2-12.4-27.6-27.6-27.6C315.4,16,303,28.4,303,43.7
				c0,1.2,0.1,2.4,0.2,3.6h-2.7c-0.1-1.2-0.2-2.4-0.2-3.6c0-16.7,13.6-30.3,30.3-30.3c16.7,0,30.3,13.6,30.3,30.3
				c0,1.2-0.1,2.4-0.2,3.6H358z"/>
		</g>
		<g>
			<path class="st12" d="M360.9,43.7c0,0.3,0,0.6,0,0.9c0,0.9-0.1,1.8-0.2,2.7H358c0.1-0.9,0.2-1.8,0.2-2.7c0-0.3,0-0.6,0-0.9
				c0-15.2-12.4-27.6-27.6-27.6C315.4,16,303,28.4,303,43.7c0,0.3,0,0.6,0,0.9c0,0.9,0.1,1.8,0.2,2.7h-2.7c-0.1-0.9-0.2-1.8-0.2-2.7
				c0-0.3,0-0.6,0-0.9c0-16.7,13.6-30.3,30.3-30.3C347.3,13.4,360.9,27,360.9,43.7"/>
		</g>
		<g>
			<path class="st13" d="M360.9,45.5c0,1.2-0.1,2.4-0.2,3.6H358c0.1-0.6,0.1-1.2,0.2-1.8c0-0.6,0.1-1.2,0.1-1.8c0-0.3,0-0.6,0-0.9
				c0-0.3,0-0.6,0-0.9c0-15.2-12.4-27.6-27.6-27.6C315.4,16,303,28.4,303,43.7c0,0.3,0,0.6,0,0.9c0,0.3,0,0.6,0,0.9
				c0,0.6,0,1.2,0.1,1.8c0,0.6,0.1,1.2,0.2,1.8h-2.7c-0.1-1.2-0.2-2.4-0.2-3.6c0-0.3,0-0.6,0-0.9c0.5-16.3,13.9-29.4,30.3-29.4
				c16.4,0,29.8,13.1,30.3,29.4C360.9,44.9,360.9,45.2,360.9,45.5"/>
		</g>
		<g>
			<path class="st5" d="M361.3,47.9h-4l0.1-0.8c0.2-1.2,0.2-2.3,0.2-3.5c0-14.9-12.1-27-27-27s-27,12.1-27,27c0,1.2,0.1,2.4,0.2,3.5
				l0.1,0.8h-4l-0.1-0.6c-0.1-1.2-0.2-2.4-0.2-3.7c0-17.1,13.9-31,31-31c17.1,0,30.9,13.9,30.9,31c0,1.2-0.1,2.5-0.2,3.7L361.3,47.9
				z M358.8,46.6h1.3c0.1-1,0.1-1.9,0.1-2.9c0-16.3-13.3-29.6-29.6-29.6c-16.3,0-29.6,13.3-29.6,29.6c0,1,0,2,0.1,2.9h1.3
				c-0.1-1-0.2-2-0.2-2.9c0-15.6,12.7-28.3,28.3-28.3s28.3,12.7,28.3,28.3C358.9,44.6,358.9,45.6,358.8,46.6z"/>
		</g>
		<g>
			<path class="st14" d="M345.4,22.4c-9.6-5.8-20-5.8-29.6,0c-1.1,0.7-2.5,0.3-3.1-0.8c-0.2-0.5-0.5-0.9-0.7-1.4
				c-0.5-1-0.2-2.3,0.8-2.9c11.5-7.3,24.3-7.3,35.8,0c1,0.6,1.3,1.9,0.8,2.9c-0.2,0.5-0.5,0.9-0.7,1.4
				C347.9,22.7,346.5,23.1,345.4,22.4"/>
		</g>
		<g class="st15">
			<g>
				<g>
					<path class="st1" d="M349.5,19.8c-0.1-0.5-0.5-0.9-0.9-1.2c-11.5-7.3-24.3-7.3-35.8,0c-0.5,0.3-0.8,0.7-0.9,1.2
						c-0.3-0.9,0.1-2,0.9-2.5c11.5-7.3,24.3-7.3,35.8,0C349.4,17.8,349.8,18.9,349.5,19.8"/>
				</g>
			</g>
		</g>
		<g>
			<path class="st16" d="M349.3,20.2c-0.2,0.5-0.5,0.9-0.7,1.4c-0.6,1.1-2,1.5-3.1,0.8c-9.6-5.8-20-5.8-29.6,0
				c-1.1,0.7-2.5,0.3-3.1-0.8c-0.2-0.5-0.5-0.9-0.7-1.4c-0.4-0.7-0.3-1.6,0.1-2.3c0.2,0.4,0.4,0.8,0.6,1.2c0.6,1.1,2,1.5,3.1,0.8
				c9.6-5.8,20-5.8,29.6,0c1.1,0.7,2.5,0.3,3.1-0.8c0.2-0.4,0.4-0.8,0.6-1.2C349.6,18.6,349.7,19.5,349.3,20.2"/>
		</g>
		<g>
			<path class="st5" d="M314.7,23.4c-0.3,0-0.5,0-0.8-0.1c-0.8-0.2-1.4-0.7-1.8-1.4l-0.7-1.4c-0.7-1.3-0.3-3,1-3.8
				c5.8-3.7,12-5.6,18.3-5.6c6.3,0,12.4,1.9,18.3,5.6c1.3,0.8,1.7,2.5,1,3.8l-0.7,1.4c-0.4,0.7-1,1.2-1.8,1.4
				c-0.8,0.2-1.6,0.1-2.3-0.3l0,0c-9.3-5.7-19.6-5.7-28.9,0C315.7,23.3,315.2,23.4,314.7,23.4z M330.6,12.5
				c-5.9,0-11.9,1.8-17.5,5.4c-0.7,0.4-0.9,1.3-0.5,2l0.7,1.4c0.2,0.4,0.5,0.6,1,0.8c0.4,0.1,0.9,0.1,1.2-0.2
				c9.8-5.9,20.5-5.9,30.3,0l0,0c0.4,0.2,0.8,0.3,1.2,0.2c0.4-0.1,0.8-0.4,1-0.8l0.7-1.4c0.4-0.7,0.2-1.6-0.5-2
				C342.5,14.3,336.6,12.5,330.6,12.5z"/>
		</g>
		<g>
			<path class="st6" d="M358.2,101.8c-3.5,6.2-11.7,4.4-11.7,4.4L338.2,83l-3-8.4c5.2,1.4,9.3,3.4,12.5,5.6c5,3.4,7.8,7.2,9.6,9.8
				C360.1,94.3,359.3,99.7,358.2,101.8"/>
		</g>
		<g class="st4">
			<path class="st5" d="M347.8,80.2c-2.8,1.3-6,2.2-9.5,2.8l-3-8.4C340.5,76,344.6,78,347.8,80.2"/>
		</g>
		<g>
			<path class="st17" d="M325.9,74.6l-3,8.5c-3.5-0.6-6.8-1.5-9.6-2.8C316.4,78.1,320.5,76,325.9,74.6"/>
		</g>
		<g>
			<path class="st17" d="M343.3,81.8c-3.9,1.2-8.3,1.8-12.9,1.8c-4.5,0-8.8-0.6-12.6-1.7c1-1.6,4.8-6.5,12.8-6.5
				C338.4,75.4,342.2,80.1,343.3,81.8"/>
		</g>
		<g>
			<path class="st5" d="M349.1,107.2c-1.6,0-2.7-0.2-2.7-0.2c-0.4-0.1-0.6-0.4-0.5-0.8c0.1-0.4,0.4-0.6,0.8-0.5
				c0.3,0.1,7.8,1.6,11-4.1c1-1.9,1.9-7-0.8-11.1c-3.2-4.9-9-11.7-21.7-15.2c-0.4-0.1-0.6-0.5-0.5-0.8c0.1-0.4,0.5-0.6,0.8-0.5
				c13.1,3.5,19.1,10.6,22.4,15.7c2.9,4.4,2.3,10.1,0.9,12.5C356.4,106.4,351.9,107.2,349.1,107.2z"/>
		</g>
		<g>
			<path class="st6" d="M325.9,74.6c-13.4,3.6-19.2,11.2-22.1,15.4c-2.8,4.3-2,9.7-0.9,11.8c3.5,6.2,11.7,4.4,11.7,4.4"/>
		</g>
		<g class="st4">
			<path class="st5" d="M325.9,74.6l-3,8.5c-3.5-0.6-6.8-1.5-9.6-2.8C316.4,78.1,320.5,76,325.9,74.6"/>
		</g>
		<g>
			<path class="st5" d="M312,107.2c-2.9,0-7.3-0.8-9.7-5c-1.4-2.5-2-8.1,0.9-12.5c3.4-5.1,9.4-12.2,22.4-15.7
				c0.4-0.1,0.7,0.1,0.8,0.5c0.1,0.4-0.1,0.7-0.5,0.8c-12.7,3.4-18.4,10.3-21.7,15.2c-2.7,4.1-1.9,9.2-0.8,11.1
				c3.2,5.7,10.7,4.2,11,4.1c0.4-0.1,0.7,0.2,0.8,0.5c0.1,0.4-0.2,0.7-0.5,0.8C314.8,106.9,313.6,107.2,312,107.2z"/>
		</g>
		<g>
			<path class="st18" d="M334.4,30.8c0,4.6-1.6,8.3-3.5,8.3c-1.9,0-3.5-3.7-3.5-8.3c0-4.6,1.6-8.3,3.5-8.3
				C332.9,22.5,334.4,26.2,334.4,30.8"/>
		</g>
		<g>
			<path class="st5" d="M330.9,39.9c-2.4,0-4.2-3.9-4.2-9c0-5.2,1.8-9,4.2-9c2.4,0,4.2,3.9,4.2,9C335.2,36,333.3,39.9,330.9,39.9z
				 M330.9,23.3c-1.2,0-2.8,2.9-2.8,7.6c0,4.7,1.6,7.6,2.8,7.6s2.8-2.9,2.8-7.6C333.7,26.1,332.1,23.3,330.9,23.3z"/>
		</g>
		<g>
			<path class="st8" d="M328.2,124.2c-14.3,0.3-23.9,7-31.4,6.7c-6.4-0.3,0.1-14.2,2.8-19.1c0,0,4.9-10.3,15-2"/>
		</g>
		<g>
			<path class="st6" d="M328.2,124.2c-14.3,0.3-23.9,7-31.4,6.7c-6-0.3-0.6-12.6,2.3-18.2c0.2-0.3,0.3-0.7,0.5-0.9
				c0,0,2.3-4.9,7.1-5.2c2.1-0.1,4.7,0.7,7.9,3.2L328.2,124.2z"/>
		</g>
		<g class="st4">
			<path class="st5" d="M328.2,124.2c-14.3,0.3-23.9,7-31.4,6.7c-6-0.3-0.6-12.6,2.3-18.2c0.1,0,0.1,0,0.2,0.1
				c1.9,0.8,3.1,9.4,5.9,6.8c2.4-2.2,0.6-8.4,1.5-13c2.1-0.1,4.7,0.7,7.9,3.2L328.2,124.2z"/>
		</g>
		<g class="st4">
			<path class="st5" d="M332.9,124.2c14.3,0.3,23.9,7,31.4,6.7c6-0.3,0.6-12.6-2.3-18.2c-0.1,0-0.1,0-0.2,0.1
				c-1.9,0.8-3.1,9.4-5.9,6.8c-2.4-2.2-0.6-8.4-1.5-13c-2.1-0.1-4.7,0.7-7.9,3.2L332.9,124.2z"/>
		</g>
		<g>
			<path class="st5" d="M297.4,131.5c-0.2,0-0.4,0-0.6,0c-1.6-0.1-2.4-0.9-2.8-1.6c-2.4-4.3,3.7-16.1,5-18.5
				c0.2-0.4,2.2-4.5,6.4-5.4c3-0.7,6.2,0.4,9.6,3.1l-0.8,1c-3.1-2.5-5.9-3.5-8.4-2.9c-3.7,0.8-5.5,4.7-5.5,4.7l0,0
				c-3.5,6.4-6.5,14.5-5,17.2c0.3,0.6,0.9,0.9,1.7,0.9c3.2,0.1,6.9-1.1,11.2-2.5c5.4-1.8,12.1-4,20.2-4.2l0,1.3
				c-7.9,0.2-14.2,2.3-19.8,4.1C304.3,130.3,300.7,131.5,297.4,131.5z"/>
		</g>
		<g>
			<path class="st8" d="M301,121.6c0.2-4.5-0.3-10.2-2.3-10.9c-1.8-0.6-2.8,3.4-2.8,3.4s-2-4.6-3.7-4.4c-1.7,0.3-1.4,5.3-1.4,5.3
				s-2.2-2.5-3.6-1.8c-2.6,1.2,1.7,15.4,6.6,17.4c3.5,1.4,6.4-0.4,6.9-3L301,121.6z"/>
		</g>
		<g>
			<path class="st6" d="M301,120.3L301,120.3c0,0.4,0,0.9,0,1.3l-0.4,5.9c-0.5,2.7-3.4,4.5-6.9,3c-2.1-0.8-4-3.8-5.4-7.1h0
				c-1.9-4.5-2.7-9.6-1.2-10.3c1.4-0.7,3.6,1.8,3.6,1.8s-0.3-5.1,1.4-5.3c1.7-0.3,3.7,4.4,3.7,4.4s1.1-4,2.8-3.4
				C300.5,111.3,301.1,116,301,120.3"/>
		</g>
		<g class="st9">
			<g>
				<g>
					<path class="st1" d="M301,120.3L301,120.3c0,0.3,0,0.7,0,1c-0.1-3.9-1-8.2-2.6-8.7c-1.2-0.4-2.5,2.1-2.5,2.1s-2.9-4.3-3.7-3.3
						c-0.8,1-0.7,3.9-1.3,4.2c-0.3,0.1-2.6-1.2-3.8-0.1c-0.3,0.3-0.6,0.6-0.7,1.2c-0.2-1.8,0-3.1,0.7-3.5c1.4-0.7,3.6,1.8,3.6,1.8
						s-0.3-5.1,1.4-5.3c1.7-0.3,3.7,4.4,3.7,4.4s1.1-4,2.8-3.4C300.5,111.3,301.1,116,301,120.3"/>
				</g>
			</g>
		</g>
		<g class="st4">
			<path class="st5" d="M301,120.3c0,0.4,0,0.9,0,1.3l-0.4,5.9c-0.5,2.7-3.4,4.5-6.9,3c-2.1-0.8-4-3.8-5.4-7.1c0,0,3.1,3.8,7.4,3
				C300,125.6,301,120.4,301,120.3"/>
		</g>
		<g>
			<path class="st5" d="M300.7,121.6c-0.2-1.4-0.3-2.7-0.4-4c-0.1-0.7-0.1-1.3-0.2-2c-0.1-0.7-0.2-1.3-0.4-1.9
				c-0.1-0.3-0.2-0.6-0.3-0.9c-0.1-0.3-0.2-0.6-0.4-0.8c-0.1-0.2-0.3-0.4-0.5-0.5c-0.1-0.1-0.1-0.1-0.2-0.1c-0.1,0-0.1,0-0.2,0
				c-0.1,0-0.3,0.2-0.5,0.4c-0.2,0.2-0.3,0.5-0.5,0.7c-0.1,0.3-0.3,0.6-0.4,0.9c-0.1,0.3-0.2,0.6-0.3,0.9l0,0
				c-0.1,0.4-0.5,0.5-0.8,0.4c-0.2-0.1-0.3-0.2-0.4-0.4c-0.4-0.8-0.8-1.7-1.4-2.5c-0.3-0.4-0.5-0.7-0.8-1c-0.1-0.1-0.3-0.3-0.4-0.3
				c-0.1-0.1-0.3-0.1-0.3-0.1c-0.1,0-0.1,0-0.2,0.1c-0.1,0.1-0.2,0.2-0.3,0.4c-0.2,0.4-0.2,0.8-0.3,1.3c-0.1,0.9-0.1,1.9-0.1,2.8
				l0,0c0,0.4-0.3,0.7-0.6,0.7c-0.2,0-0.4-0.1-0.5-0.2l0,0c-0.1-0.1-0.2-0.2-0.3-0.3c-0.1-0.1-0.2-0.2-0.4-0.3
				c-0.2-0.2-0.5-0.4-0.7-0.6c-0.3-0.2-0.5-0.3-0.8-0.4c-0.2-0.1-0.5-0.1-0.6-0.1c-0.1,0-0.1,0-0.1,0.1c0,0-0.1,0.1-0.1,0.2
				c-0.1,0.2-0.1,0.5-0.2,0.8c0,0.6,0,1.3,0.1,1.9c0.2,1.3,0.5,2.6,0.9,3.9c0.4,1.3,0.9,2.5,1.5,3.7c0.6,1.2,1.2,2.4,2,3.4
				c0.4,0.5,0.8,1,1.3,1.4c0.2,0.2,0.5,0.4,0.7,0.5c0.1,0.1,0.3,0.1,0.4,0.2c0.1,0.1,0.3,0.1,0.4,0.2c0.6,0.2,1.2,0.3,1.8,0.3
				c0.2,0,0.3,0,0.4,0c0.1,0,0.3,0,0.4-0.1c0.3-0.1,0.6-0.1,0.9-0.2c0.5-0.2,1-0.6,1.5-1c0.4-0.4,0.7-1,0.9-1.6l0,0
				c0.1-0.2,0.3-0.3,0.4-0.2c0.1,0,0.2,0.2,0.2,0.3c0,0.7-0.3,1.5-0.8,2.1c-0.4,0.6-1.1,1.2-1.8,1.5c-0.7,0.3-1.5,0.5-2.3,0.5
				c-0.8,0-1.5-0.1-2.2-0.4c-0.2-0.1-0.4-0.1-0.5-0.2c-0.2-0.1-0.4-0.2-0.5-0.3c-0.3-0.2-0.7-0.4-0.9-0.7c-0.6-0.5-1.1-1-1.5-1.6
				c-0.9-1.1-1.6-2.4-2.2-3.6c-0.6-1.3-1.1-2.6-1.5-3.9c-0.4-1.3-0.8-2.7-1-4.1c-0.1-0.7-0.1-1.4-0.1-2.2c0-0.4,0.1-0.8,0.3-1.2
				c0.1-0.2,0.2-0.4,0.4-0.6c0.1-0.1,0.2-0.2,0.3-0.3c0.1-0.1,0.3-0.1,0.4-0.2c0.3-0.1,0.5-0.1,0.8-0.1c0.2,0,0.5,0.1,0.7,0.1
				c0.4,0.1,0.8,0.3,1.1,0.5c0.3,0.2,0.6,0.4,0.9,0.7c0.1,0.1,0.3,0.2,0.4,0.4c0.1,0.1,0.3,0.3,0.4,0.4L290,115v0c0-0.5,0-1,0-1.5
				c0-0.5,0.1-1,0.1-1.5c0.1-0.5,0.2-1,0.4-1.6c0.1-0.3,0.3-0.6,0.5-0.8c0.1-0.1,0.1-0.1,0.2-0.2c0.1-0.1,0.2-0.1,0.3-0.2
				c0.2-0.1,0.4-0.2,0.6-0.2c0.4,0,0.8,0.1,1.1,0.3c0.3,0.2,0.5,0.4,0.7,0.5c0.2,0.2,0.4,0.4,0.6,0.6c0.2,0.2,0.3,0.4,0.5,0.6
				c0.3,0.4,0.6,0.9,0.8,1.3c0.2,0.5,0.5,0.9,0.7,1.4l-1.3,0.1c0.1-0.4,0.2-0.7,0.3-1.1c0.1-0.3,0.3-0.7,0.4-1
				c0.2-0.3,0.4-0.7,0.6-1c0.1-0.2,0.3-0.3,0.5-0.5c0.2-0.1,0.4-0.3,0.7-0.4c0.3-0.1,0.6-0.1,0.8-0.1c0.3,0,0.5,0.1,0.8,0.3
				c0.4,0.3,0.7,0.6,0.9,1c0.2,0.3,0.4,0.7,0.5,1.1c0.1,0.4,0.2,0.7,0.3,1.1c0.4,1.4,0.5,2.8,0.5,4.2c0.1,1.4,0,2.8-0.3,4.2
				c0,0.2-0.2,0.3-0.4,0.3C300.8,121.8,300.7,121.7,300.7,121.6L300.7,121.6z"/>
		</g>
		<g>
			<path class="st5" d="M363.8,131.6c-3.3,0-6.9-1.2-11.1-2.6c-5.6-1.9-11.9-4-19.8-4.1l0-1.3c8.1,0.2,14.8,2.4,20.2,4.2
				c4.3,1.4,8,2.6,11.2,2.5c0.8,0,1.3-0.3,1.7-0.9c1.5-2.7-1.5-10.8-5-17.2l0,0c0,0-1.9-3.9-5.5-4.7c-2.5-0.6-5.4,0.4-8.4,2.9
				l-0.8-1c3.4-2.8,6.6-3.8,9.6-3.1c4.2,1,6.3,5.1,6.4,5.4c1.3,2.4,7.4,14.2,5,18.5c-0.6,1-1.5,1.5-2.8,1.6
				C364.1,131.6,363.9,131.6,363.8,131.6z"/>
		</g>
		<g>
			<path class="st6" d="M353,112.6c-1.2,6-4.5,9.3-6.2,10.2c0,0-6.6,2.9-16.3,2.9c-9.7,0-16.3-2.9-16.3-2.9c-1.7-1-5-4.2-6.2-10.2
				c-1.6-7.9,2.8-18.7,6.7-25.8h0c0.9-1.7,1.8-3.2,2.6-4.4c0,0,3.5-7.1,13.1-7.1c9.6,0,13.1,7.1,13.1,7.1c0.8,1.2,1.6,2.6,2.5,4.2
				C350.2,93.8,354.6,104.6,353,112.6"/>
		</g>
		<g class="st4">
			<path class="st5" d="M343.3,81.8c-3.9,1.2-8.3,1.8-12.9,1.8c-4.5,0-8.8-0.6-12.6-1.7c1-1.6,4.8-6.5,12.8-6.5
				C338.4,75.4,342.2,80.1,343.3,81.8"/>
		</g>
		<g>
			<path class="st10" d="M340.9,82.5c-3.2,0.8-6.8,1.2-10.5,1.2c-3.6,0-7-0.4-10.2-1.1c1.4-2.4,2.9-4.6,4.6-6.2c1.6-0.6,3.5-1,5.8-1
				c2.3,0,4.2,0.4,5.8,1C338,78,339.5,80.1,340.9,82.5"/>
		</g>
		<g class="st4">
			<path class="st5" d="M353,112.6c-1.2,6-4.5,9.3-6.2,10.2c0,0-6.6,2.9-16.3,2.9c-9.7,0-16.3-2.9-16.3-2.9c-1.7-1-5-4.2-6.2-10.2
				c-0.4-1.8-0.4-3.8-0.2-5.8c0.1,0.5,0.1,1,0.2,1.5c1.2,6,11.3,10,22.5,10c11.2,0,21.3-4.1,22.5-10c0.1-0.5,0.2-1,0.2-1.5
				C353.4,108.8,353.4,110.8,353,112.6"/>
		</g>
		<g>
			<path class="st10" d="M348.2,114.1c-2.1,3.7-6.8,7.3-17.6,7.3c-10.7,0-15.5-3.6-17.6-7.3c4.2,2.6,10.7,4.1,17.5,4.1
				C337.4,118.3,343.9,116.7,348.2,114.1"/>
		</g>
		<g>
			<path class="st19" d="M348.7,113c-1.7,4-6.3,8.4-18.1,8.4c-11.8,0-16.4-4.3-18.1-8.4c4.7,2.5,12.2,3.5,18.1,3.5
				C336.5,116.6,344,115.5,348.7,113"/>
		</g>
		<g>
			<path class="st19" d="M347.2,115.6c-2.5,3.1-7.3,5.9-16.6,5.9c-9.3,0-14.1-2.7-16.6-5.8c3.9,2.4,9.6,4.1,16.6,4.1
				C337.6,119.7,343.3,118,347.2,115.6"/>
		</g>
		<g>
			<path class="st11" d="M330.6,121.4c-19.8,0-19.2-12.1-19.1-14.7c0-0.4,0.1-0.8,0.2-1.4c1-5.4,8.8-31.8,18.9-31.8
				c10.1,0,17.9,26.5,18.9,31.8c0.1,0.5,0.2,1,0.2,1.4C349.8,109.3,350.3,121.4,330.6,121.4"/>
		</g>
		<g class="st4">
			<path class="st5" d="M348.2,114.1c-2.1,3.7-6.8,7.3-17.6,7.3c-10.7,0-15.5-3.6-17.6-7.3c4.2,2.6,10.7,4.1,17.5,4.1
				C337.4,118.3,343.9,116.7,348.2,114.1"/>
		</g>
		<g class="st4">
			<path class="st5" d="M340.9,82.5c-3.2,0.8-6.8,1.2-10.5,1.2c-3.6,0-7-0.4-10.2-1.1c1.4-2.4,2.9-4.6,4.6-6.2c1.6-0.6,3.5-1,5.8-1
				c2.3,0,4.2,0.4,5.8,1C338,78,339.5,80.1,340.9,82.5"/>
		</g>
		<g>
			<path class="st5" d="M347,123.1c-1.3,0.6-2.6,1.1-4,1.5c-1.3,0.4-2.7,0.7-4.1,1c-2.8,0.5-5.6,0.8-8.4,0.8c-2.8,0-5.6-0.3-8.4-0.8
				c-1.4-0.3-2.7-0.6-4.1-1c-1.3-0.4-2.7-0.9-4-1.5c-0.2-0.1-0.2-0.3-0.2-0.4c0.1-0.2,0.3-0.2,0.4-0.2l0,0c1.3,0.4,2.6,0.8,3.9,1.1
				c0.3,0.1,0.7,0.2,1,0.2c0.3,0.1,0.7,0.1,1,0.2l1,0.2l1,0.2c1.4,0.2,2.7,0.4,4.1,0.5c0.7,0.1,1.4,0.1,2,0.1c0.3,0,0.7,0,1,0l1,0
				l1,0c0.3,0,0.7,0,1,0c0.7,0,1.4-0.1,2-0.1c1.4-0.1,2.7-0.3,4.1-0.5l1-0.2l1-0.2c0.3-0.1,0.7-0.1,1-0.2c0.3-0.1,0.7-0.1,1-0.2
				c1.3-0.3,2.7-0.7,3.9-1.1l0,0c0.2-0.1,0.4,0,0.4,0.2C347.2,122.9,347.1,123.1,347,123.1"/>
		</g>
		<g>
			<path class="st5" d="M344,82.2c0.4,0.5,0.8,1.1,1.2,1.7c0.2,0.3,0.4,0.6,0.6,0.9l0.5,0.9c0.7,1.2,1.4,2.3,2,3.5
				c1.3,2.4,2.4,4.9,3.3,7.4c0.5,1.3,0.9,2.6,1.2,3.9c0.4,1.3,0.7,2.6,0.9,4c0.1,0.3,0.1,0.7,0.2,1c0,0.3,0.1,0.7,0.1,1
				c0,0.3,0,0.7,0.1,1c0,0.3,0,0.7,0,1c0,0.3,0,0.7,0,1c0,0.2,0,0.3-0.1,0.5c0,0.2,0,0.3-0.1,0.5c-0.1,0.3-0.1,0.7-0.2,1
				c-0.1,0.3-0.2,0.7-0.3,1c-0.1,0.2-0.3,0.3-0.4,0.2c-0.1,0-0.2-0.2-0.2-0.3l0,0c0-0.3,0-0.7,0-1l0-0.5c0-0.2,0-0.3,0-0.5
				c0-0.7,0-1.3-0.1-2c0-0.3,0-0.7-0.1-1c0-0.3-0.1-0.7-0.1-1c0-0.3-0.1-0.7-0.1-1l-0.1-1c-0.4-2.6-1.1-5.2-2.1-7.6
				c-0.9-2.5-1.9-4.9-3.1-7.4c-0.6-1.2-1.2-2.4-1.8-3.6c-0.3-0.6-0.6-1.2-1-1.8c-0.3-0.6-0.7-1.2-1-1.7l0,0c-0.1-0.2,0-0.4,0.1-0.5
				C343.7,82.1,343.9,82.1,344,82.2"/>
		</g>
		<g>
			<path class="st5" d="M307.8,112.7c-0.1-0.3-0.2-0.7-0.3-1c-0.1-0.3-0.1-0.7-0.2-1c0-0.3-0.1-0.7-0.1-1c0-0.2,0-0.3,0-0.5
				c0-0.2,0-0.3,0-0.5c0-0.3,0-0.7,0-1c0-0.3,0-0.7,0.1-1c0-0.3,0.1-0.7,0.1-1c0.1-0.3,0.1-0.7,0.2-1c0.2-1.4,0.6-2.7,0.9-4
				c0.4-1.3,0.8-2.6,1.2-3.9c0.9-2.6,2-5,3.3-7.4c0.6-1.2,1.3-2.4,2-3.5l0.5-0.9c0.2-0.3,0.4-0.6,0.6-0.8c0.4-0.6,0.8-1.1,1.2-1.7
				c0.1-0.2,0.3-0.2,0.5-0.1c0.1,0.1,0.2,0.3,0.1,0.4l0,0c-0.3,0.6-0.7,1.2-1,1.7c-0.3,0.6-0.6,1.2-1,1.8c-0.6,1.2-1.2,2.4-1.8,3.6
				c-1.1,2.4-2.2,4.9-3.1,7.4c-0.9,2.5-1.7,5-2.1,7.6l-0.1,1l-0.1,1c0,0.3-0.1,0.7-0.1,1c0,0.3,0,0.7-0.1,1c0,0.3,0,0.7,0,1
				c0,0.3,0,0.7,0,1l0,1c0,0.3,0,0.7,0,1v0c0,0.2-0.2,0.3-0.3,0.3C308,112.9,307.8,112.8,307.8,112.7"/>
		</g>
		<g>
			<path class="st20" d="M333.2,102.3c-0.5-0.1-0.9-0.3-0.9-0.5c0-0.3,0.8-0.5,2-0.6l2.4,0c1,0.1,1.7,0.3,2,0.5c0,0-0.1,1.2-2.1,1.6
				C334.5,103.8,333.2,102.3,333.2,102.3"/>
		</g>
		<g>
			<path class="st20" d="M322.4,101.7c0.2-0.2,1-0.4,2-0.5l2.4,0c1.2,0.1,2,0.4,2,0.6c0,0.2-0.3,0.4-0.9,0.5c0,0-1.2,1-3.8,1
				C321.6,103.3,322.4,101.7,322.4,101.7"/>
		</g>
		<g>
			<path class="st5" d="M335.7,103.7c-1.4,0-2.4-0.8-2.7-1.1c-0.5-0.1-1-0.3-1-0.8c0-0.2,0-0.8,2.3-1l0,0l2.4,0l0,0
				c0.6,0.1,1.7,0.2,2.1,0.6l0.1,0.1l0,0.2c0,0.1-0.2,1.4-2.4,1.9C336.3,103.7,336,103.7,335.7,103.7z M333.5,102.1
				c0.1,0.1,1.2,1.3,3,0.9c1.3-0.3,1.7-0.9,1.8-1.2c-0.3-0.1-0.7-0.2-1.6-0.3l-2.3,0c-0.9,0.1-1.4,0.2-1.6,0.3
				c0.1,0,0.3,0.1,0.5,0.2L333.5,102.1L333.5,102.1z"/>
		</g>
		<g>
			<path class="st5" d="M324.1,103.6c-1,0-1.7-0.3-2-0.8c-0.4-0.6,0-1.3,0-1.3l0-0.1c0.3-0.4,1.4-0.6,2.2-0.6l0,0l2.4,0
				c2.3,0.2,2.3,0.8,2.3,1c0,0.5-0.6,0.7-1.1,0.8C327.8,102.8,326.5,103.6,324.1,103.6z M322.7,101.9c0,0.1-0.1,0.4,0,0.6
				c0.2,0.3,0.7,0.4,1.4,0.4c2.4,0,3.5-0.9,3.6-0.9l0.1,0l0.1,0c0.2-0.1,0.4-0.1,0.5-0.2c-0.2-0.1-0.7-0.2-1.6-0.3l-2.3,0
				C323.3,101.6,322.8,101.8,322.7,101.9z"/>
		</g>
		<g>
			<path class="st1" d="M335.5,102.2c0.5-0.1,1.3-0.3,2.6-0.3h0.3l7.8,0.5c0.2,0.1,0.2,0.2,0.2,0.2c0.1,0.5,0,0.6,0.3,1.2
				c0.1,0.3,0.4,0.7,0.6,1c1.1,2.1,1.1,4.1-0.2,6.3c-1.3,2.2-3.7,1.7-3.7,1.7l-3.3-1.4c0,0-0.4-1.1-1.8-0.9
				c-1.4,0.2-4.5,0.9-7.7,0.9c-3.2,0-6.3-0.7-7.8-0.9c-1.4-0.2-1.8,0.9-1.8,0.9l-3.3,1.4c0,0-2.3,0.5-3.7-1.7
				c-1.3-2.2-1.4-4.1-0.2-6.3c0.2-0.4,0.5-0.7,0.6-1c0.3-0.6,0.2-0.7,0.3-1.2c0,0,0-0.1,0.2-0.2l7.8-0.5h0.3c1.1,0,1.8,0.2,2.3,0.3
				l5,1.1L335.5,102.2z"/>
		</g>
		<g class="st4">
			<path class="st5" d="M330.6,109.1v2.1c-3.2,0-6.3-0.7-7.7-0.9c-1.4-0.2-1.8,0.9-1.8,0.9l-3.3,1.4c0,0-2.3,0.5-3.7-1.7
				c-0.6-1-1-2-1-3c0.3,0.7,1,1.4,2.1,1.2c1.6-0.2,1.3-2.9,1.3-2.9h5C321.4,106.5,322.5,109.1,330.6,109.1"/>
		</g>
		<g class="st4">
			<path class="st5" d="M348.1,108.1c-0.1,1-0.4,2-1,3c-1.3,2.2-3.7,1.7-3.7,1.7l-3.3-1.4c0,0-0.4-1.1-1.8-0.9
				c-1.4,0.2-4.5,0.9-7.7,0.9h0v-2.1c8.1,0,9.1-2.7,9.1-2.7h5c0,0-0.3,2.7,1.3,2.9C347.2,109.5,347.8,108.9,348.1,108.1"/>
		</g>
		<g>
			<path class="st5" d="M317.1,113.4c-0.9,0-2.5-0.3-3.5-2c-1.4-2.3-1.5-4.4-0.2-6.8c0.1-0.2,0.2-0.4,0.4-0.6
				c0.1-0.2,0.2-0.3,0.3-0.4c0.2-0.4,0.2-0.5,0.2-0.8c0-0.1,0-0.2,0-0.3c0-0.1,0.1-0.3,0.3-0.6l0.1-0.1l8-0.5h0.3
				c1,0,1.7,0.1,2.2,0.2c0.1,0,0.2,0,0.2,0l4.9,1l5.1-1c0.1,0,0.3,0,0.4-0.1c0.5-0.1,1.2-0.2,2.2-0.2l0.4,0l8,0.5l0.1,0.1
				c0.3,0.2,0.3,0.5,0.3,0.5c0,0.1,0,0.2,0,0.3c0,0.2,0,0.3,0.2,0.8c0,0.1,0.2,0.3,0.3,0.4c0.1,0.2,0.3,0.4,0.4,0.6
				c1.3,2.3,1.2,4.5-0.2,6.8c-1.5,2.4-4.1,1.9-4.2,1.9l-0.1,0l-3.6-1.6l-0.1-0.2c0-0.1-0.3-0.7-1.3-0.6c-0.3,0-0.8,0.1-1.3,0.2
				c-1.6,0.3-4,0.7-6.5,0.7c-2.5,0-5-0.4-6.6-0.7c-0.5-0.1-0.9-0.1-1.2-0.2c-1-0.1-1.3,0.5-1.3,0.6l-0.1,0.2l-0.2,0.1l-3.4,1.5
				l-0.1,0C317.8,113.3,317.5,113.4,317.1,113.4z M343.6,112.3c0.3,0,2.1,0.2,3.1-1.5c1.2-2,1.3-3.7,0.2-5.8
				c-0.1-0.1-0.2-0.3-0.3-0.5c-0.1-0.2-0.3-0.4-0.4-0.6c-0.2-0.5-0.3-0.7-0.3-1.1c0,0,0-0.1,0-0.1l-7.5-0.5h-0.3
				c-0.9,0-1.5,0.1-2,0.2c-0.2,0-0.3,0.1-0.5,0.1l-5.2,1l-5.1-1.1c-0.1,0-0.1,0-0.2,0c-0.5-0.1-1.1-0.2-2-0.2h-0.3l-7.5,0.5
				c0,0,0,0.1,0,0.1c0,0.3-0.1,0.5-0.3,1.1c-0.1,0.2-0.2,0.4-0.4,0.6c-0.1,0.2-0.2,0.3-0.3,0.5c-1.1,2-1,3.8,0.2,5.8
				c1,1.7,2.8,1.5,3.1,1.5l3.1-1.3c0.3-0.5,1-1.2,2.3-1c0.3,0,0.8,0.1,1.3,0.2c1.6,0.3,4,0.7,6.4,0.7c2.4,0,4.8-0.4,6.4-0.6
				c0.5-0.1,0.9-0.2,1.3-0.2c1.3-0.2,2,0.5,2.3,1L343.6,112.3z"/>
		</g>
		<g class="st21">
			<g>
				<g>
					<path class="st1" d="M321.5,106.9v0.9c0-0.8-0.6-1.4-1.4-1.4h-2.3c-0.8,0-1.4,0.6-1.4,1.4v-0.9c0-0.8,0.6-1.4,1.4-1.4h2.3
						C320.9,105.4,321.5,106.1,321.5,106.9"/>
				</g>
			</g>
		</g>
		<g class="st21">
			<g>
				<g>
					<path class="st1" d="M344.8,106.9v0.9c0-0.8-0.6-1.4-1.4-1.4H341c-0.8,0-1.4,0.6-1.4,1.4v-0.9c0-0.8,0.6-1.4,1.4-1.4h2.3
						C344.2,105.4,344.8,106.1,344.8,106.9"/>
				</g>
			</g>
		</g>
		<g>
			<path class="st5" d="M340.6,105.8c-0.1,0-0.2,0-0.3-0.1c-0.2-0.2-1-1.1-4.4-1.1c-0.2,0-0.3-0.2-0.3-0.3c0-0.2,0.2-0.3,0.3-0.3
				c0,0,0,0,0,0c3.5,0,4.6,0.9,5,1.4c0.1,0.2,0.1,0.4-0.1,0.5C340.8,105.8,340.7,105.8,340.6,105.8z"/>
		</g>
		<g>
			<path class="st5" d="M320.5,105.8c-0.1,0-0.1,0-0.2-0.1c-0.2-0.1-0.2-0.3-0.1-0.5c0.4-0.5,1.5-1.4,5-1.4c0,0,0,0,0,0
				c0.2,0,0.3,0.1,0.3,0.3c0,0.2-0.1,0.3-0.3,0.3c-3.4,0-4.3,0.9-4.4,1.1C320.7,105.8,320.6,105.8,320.5,105.8z"/>
		</g>
		<g>
			<path class="st1" d="M337.3,102.5c0,0.5,2,0.8,4.5,0.8c2.5,0,4.5-0.4,4.5-0.8s-2-0.8-4.5-0.8C339.3,101.6,337.3,102,337.3,102.5"
				/>
		</g>
		<g>
			<path class="st5" d="M337.6,102.5C337.6,102.5,337.6,102.5,337.6,102.5C337.6,102.5,337.6,102.5,337.6,102.5
				c0.1,0.1,0.2,0.1,0.3,0.2c0.2,0.1,0.3,0.1,0.5,0.2c0.4,0.1,0.7,0.2,1.1,0.2c0.4,0.1,0.8,0.1,1.2,0.1c0.4,0,0.8,0,1.2,0
				c0.8,0,1.5-0.1,2.3-0.2c0.4-0.1,0.8-0.1,1.1-0.2c0.2,0,0.4-0.1,0.5-0.2c0.1,0,0.2-0.1,0.2-0.1c0,0,0,0,0,0c0,0,0,0,0,0
				c0,0,0,0.1,0,0.1c0,0,0,0-0.1,0c-0.1,0-0.1-0.1-0.2-0.1c-0.2-0.1-0.3-0.1-0.5-0.1c-0.4-0.1-0.7-0.1-1.1-0.2
				c-0.8-0.1-1.5-0.1-2.3-0.1c-0.8,0-1.5,0-2.3,0.1c-0.4,0-0.8,0.1-1.1,0.2c-0.2,0-0.4,0.1-0.5,0.1
				C337.8,102.4,337.7,102.4,337.6,102.5C337.6,102.5,337.6,102.5,337.6,102.5C337.6,102.5,337.6,102.5,337.6,102.5 M337.1,102.5
				c0-0.1,0.1-0.2,0.1-0.3c0.1-0.1,0.1-0.1,0.2-0.1c0.1-0.1,0.2-0.1,0.3-0.2c0.2-0.1,0.4-0.1,0.6-0.2c0.4-0.1,0.8-0.2,1.2-0.2
				c0.8-0.1,1.6-0.2,2.4-0.2c0.8,0,1.6,0,2.4,0.1c0.4,0,0.8,0.1,1.2,0.2c0.2,0.1,0.4,0.1,0.6,0.2c0.1,0,0.2,0.1,0.3,0.2
				c0.1,0,0.1,0.1,0.2,0.2c0.1,0.1,0.1,0.2,0.1,0.3c0,0.1-0.1,0.2-0.1,0.3c-0.1,0.1-0.1,0.1-0.2,0.1c-0.1,0.1-0.2,0.1-0.3,0.2
				c-0.2,0.1-0.4,0.1-0.6,0.2c-0.4,0.1-0.8,0.1-1.2,0.2c-0.8,0.1-1.6,0.1-2.4,0.1c-0.4,0-0.8,0-1.2,0c-0.4,0-0.8-0.1-1.2-0.1
				c-0.4,0-0.8-0.1-1.2-0.2c-0.2,0-0.4-0.1-0.6-0.2c-0.1,0-0.2-0.1-0.3-0.1c-0.1,0-0.1-0.1-0.2-0.1
				C337.2,102.7,337.1,102.6,337.1,102.5"/>
		</g>
		<g>
			<path class="st22" d="M326.8,101.4c0,0.1-0.5,0.2-1.2,0.2c-0.7,0-1.2-0.1-1.2-0.2v-1.5c0,0,0.9,0.1,1.2,0.1
				c0.2,0,1.2-0.1,1.2-0.1S326.8,101.4,326.8,101.4"/>
		</g>
		<g>
			<path class="st22" d="M334.4,101.4c0,0.1,0.5,0.2,1.2,0.2c0.7,0,1.2-0.1,1.2-0.2v-1.5c0,0-0.9,0.1-1.2,0.1
				c-0.2,0-1.2-0.1-1.2-0.1S334.4,101.4,334.4,101.4"/>
		</g>
		<g>
			<path class="st23" d="M326.8,101.4c0,0.1-0.5,0.2-1.2,0.2c-0.7,0-1.2-0.1-1.2-0.2v-1.5c0,0,0.9,0.1,1.2,0.1
				c0.2,0,1.2-0.1,1.2-0.1S326.8,101.4,326.8,101.4"/>
		</g>
		<g>
			<path class="st23" d="M334.4,101.4c0,0.1,0.5,0.2,1.2,0.2c0.7,0,1.2-0.1,1.2-0.2v-1.5c0,0-0.9,0.1-1.2,0.1
				c-0.2,0-1.2-0.1-1.2-0.1S334.4,101.4,334.4,101.4"/>
		</g>
		<g>
			<path class="st5" d="M325.6,101.8c-1.4,0-1.4-0.2-1.4-0.4v-1.5c0-0.1,0-0.1,0.1-0.2c0.1,0,0.1-0.1,0.2-0.1c0,0,0.9,0.1,1.2,0.1
				c0.2,0,0.9-0.1,1.2-0.1c0.1,0,0.1,0,0.2,0.1c0.1,0,0.1,0.1,0.1,0.2c0,0,0,1.5,0,1.5C327,101.6,327,101.8,325.6,101.8z
				 M324.7,101.3c0.2,0,0.5,0.1,0.9,0.1c0.5,0,0.8,0,0.9-0.1c0-0.3,0-0.8,0-1.1c-0.3,0-0.8,0.1-0.9,0.1c-0.2,0-0.6,0-0.9-0.1V101.3z
				"/>
		</g>
		<g>
			<path class="st5" d="M335.5,101.8c-1.4,0-1.4-0.2-1.4-0.4l0,0c0-0.1,0-1.5,0-1.5c0-0.1,0-0.1,0.1-0.2c0.1,0,0.1-0.1,0.2-0.1
				c0.3,0,1,0.1,1.2,0.1c0.3,0,1.1-0.1,1.2-0.1c0.1,0,0.1,0,0.2,0.1c0.1,0,0.1,0.1,0.1,0.2v1.5C337,101.6,337,101.8,335.5,101.8z
				 M334.6,101.3c0.2,0,0.5,0.1,0.9,0.1c0.5,0,0.8,0,0.9-0.1v-1.1c-0.3,0-0.7,0.1-0.9,0.1c-0.1,0-0.6,0-0.9-0.1
				C334.6,100.5,334.6,101,334.6,101.3z"/>
		</g>
		<g>
			<path class="st24" d="M319.1,113.4L319.1,113.4c-0.9,0-1.6-0.6-1.8-1.5l-0.5-2.1c-0.1-0.2,0.1-0.5,0.4-0.5h3.6
				c0.2,0,0.4,0.2,0.4,0.4l-0.2,2C320.9,112.7,320,113.4,319.1,113.4"/>
		</g>
		<g class="st9">
			<g>
				<g>
					<path class="st1" d="M321.2,109.8l0,0.4c-0.1-0.1-0.2-0.2-0.3-0.2h-3.6c-0.1,0-0.2,0.1-0.3,0.2l-0.1-0.3
						c-0.1-0.2,0.1-0.5,0.4-0.5h3.6C321,109.4,321.2,109.6,321.2,109.8"/>
				</g>
			</g>
		</g>
		<g>
			<path class="st25" d="M321.2,109.8l-0.2,2c-0.1,1-0.9,1.7-1.9,1.7c-0.9,0-1.6-0.6-1.8-1.5l-0.5-2.1c0-0.2,0-0.3,0.2-0.4l0.3,1.4
				c0.2,0.9,1,1.5,1.8,1.5c1,0,1.8-0.7,1.9-1.7l0.1-1.2C321.1,109.6,321.2,109.7,321.2,109.8"/>
		</g>
		<g>
			<path class="st5" d="M319.1,113.8c-1,0-1.9-0.7-2.2-1.7l-0.5-2.1c0-0.2,0-0.4,0.1-0.6c0.1-0.2,0.3-0.3,0.6-0.3h3.6
				c0.2,0,0.4,0.1,0.5,0.2c0.1,0.2,0.2,0.4,0.2,0.6l-0.2,2C321.2,112.9,320.2,113.8,319.1,113.8z M317.2,109.7
				C317.1,109.7,317.1,109.7,317.2,109.7C317.1,109.7,317.1,109.8,317.2,109.7l0.4,2.2c0.2,0.7,0.8,1.2,1.5,1.2
				c0.8,0,1.4-0.6,1.5-1.4l0.2-2c0,0,0,0,0,0c0,0,0,0,0,0H317.2z"/>
		</g>
		<g>
			<path class="st24" d="M342,113.4L342,113.4c0.9,0,1.6-0.6,1.8-1.5l0.5-2.1c0.1-0.2-0.1-0.5-0.4-0.5h-3.6c-0.2,0-0.4,0.2-0.4,0.4
				l0.2,2C340.3,112.7,341.1,113.4,342,113.4"/>
		</g>
		<g class="st9">
			<g>
				<g>
					<path class="st1" d="M344.4,109.9l-0.1,0.3c-0.1-0.1-0.2-0.2-0.3-0.2h-3.6c-0.2,0-0.3,0.1-0.3,0.2l0-0.4c0-0.2,0.2-0.4,0.4-0.4
						h3.6C344.2,109.4,344.4,109.6,344.4,109.9"/>
				</g>
			</g>
		</g>
		<g>
			<path class="st25" d="M344.4,109.9l-0.5,2.1c-0.2,0.9-1,1.5-1.8,1.5c-1,0-1.8-0.7-1.9-1.7l-0.2-2c0-0.1,0-0.2,0.1-0.3l0.1,1.2
				c0.1,1,0.9,1.7,1.9,1.7c0.9,0,1.6-0.6,1.8-1.5l0.3-1.4C344.3,109.5,344.4,109.7,344.4,109.9"/>
		</g>
		<g>
			<path class="st5" d="M342,113.8c-1.1,0-2.1-0.8-2.2-2l-0.2-2c0-0.2,0-0.4,0.2-0.6c0.1-0.2,0.3-0.2,0.5-0.2h3.6
				c0.2,0,0.4,0.1,0.6,0.3c0.1,0.2,0.2,0.4,0.1,0.6l-0.5,2.1C344,113.1,343.1,113.8,342,113.8z M340.4,109.7
				C340.3,109.7,340.3,109.7,340.4,109.7C340.3,109.7,340.3,109.8,340.4,109.7l0.1,2c0.1,0.8,0.7,1.4,1.5,1.4c0.7,0,1.3-0.5,1.5-1.2
				l0.5-2.1c0,0,0,0,0-0.1c0,0,0,0,0,0H340.4z"/>
		</g>
		<g>
			<path class="st22" d="M328,99.2c0,0.3-1.1,0.5-2.4,0.5c-1.3,0-2.4-0.2-2.4-0.5c0-0.3,1.1-0.5,2.4-0.5
				C326.9,98.7,328,98.9,328,99.2"/>
		</g>
		<g>
			<path class="st22" d="M338,99.2c0,0.3-1.1,0.5-2.4,0.5c-1.3,0-2.4-0.2-2.4-0.5c0-0.3,1.1-0.5,2.4-0.5
				C336.9,98.7,338,98.9,338,99.2"/>
		</g>
		<g>
			<path class="st26" d="M328,99.2c0,0.3-1.1,0.5-2.4,0.5c-1.3,0-2.4-0.2-2.4-0.5c0-0.3,1.1-0.5,2.4-0.5
				C326.9,98.7,328,98.9,328,99.2"/>
		</g>
		<g>
			<path class="st24" d="M328.3,100.2c0,0.3-1.2,0.7-2.8,0.7c-1.5,0-2.8-0.4-2.8-0.7c0-0.7,0.4-1,0.4-1c0,0.3,1.1,0.5,2.4,0.5
				c1.3,0,2.4-0.2,2.4-0.5C328,99.2,328.3,99.5,328.3,100.2"/>
		</g>
		<g>
			<path class="st5" d="M325.6,99.9c-0.8,0-2.7-0.1-2.7-0.7c0-0.6,1.9-0.7,2.7-0.7c0.8,0,2.7,0.1,2.7,0.7
				C328.2,99.8,326.4,99.9,325.6,99.9z M323.6,99.2c0.3,0.1,1,0.2,2,0.2c1,0,1.6-0.1,2-0.2c-0.3-0.1-1-0.2-2-0.2
				C324.6,99,323.9,99.1,323.6,99.2z M327.8,99.3L327.8,99.3L327.8,99.3z"/>
		</g>
		<g>
			<path class="st5" d="M325.6,101.1c-1.2,0-3-0.3-3-0.9c0-0.8,0.4-1.2,0.5-1.2c0.1-0.1,0.2-0.1,0.3,0c0.1,0,0.1,0.1,0.1,0.1
				c0.2,0.1,0.9,0.3,2.2,0.3c1.3,0,2-0.2,2.2-0.3c0-0.1,0.1-0.1,0.1-0.1c0.1,0,0.2,0,0.3,0c0,0,0.5,0.4,0.5,1.2
				C328.6,100.8,326.8,101.1,325.6,101.1z M323.1,100.2c0.2,0.1,1.1,0.5,2.5,0.5c1.4,0,2.3-0.3,2.5-0.5c0-0.3-0.1-0.5-0.1-0.6
				c-0.6,0.3-1.8,0.3-2.4,0.3c-0.6,0-1.8,0-2.4-0.3C323.1,99.7,323.1,99.9,323.1,100.2z M327.7,99.2
				C327.7,99.2,327.7,99.2,327.7,99.2C327.7,99.2,327.7,99.2,327.7,99.2z M323.4,99.2C323.4,99.2,323.4,99.2,323.4,99.2
				C323.4,99.2,323.4,99.2,323.4,99.2z"/>
		</g>
		<g>
			<path class="st26" d="M338,99.2c0,0.3-1.1,0.5-2.4,0.5c-1.3,0-2.4-0.2-2.4-0.5c0-0.3,1.1-0.5,2.4-0.5
				C336.9,98.7,338,98.9,338,99.2"/>
		</g>
		<g>
			<path class="st24" d="M338.3,100.2c0,0.3-1.2,0.7-2.8,0.7c-1.5,0-2.8-0.4-2.8-0.7c0-0.7,0.4-1,0.4-1c0,0.3,1.1,0.5,2.4,0.5
				c1.3,0,2.4-0.2,2.4-0.5C338,99.2,338.3,99.5,338.3,100.2"/>
		</g>
		<g>
			<path class="st5" d="M335.6,99.9c-0.8,0-2.7-0.1-2.7-0.7c0-0.6,1.9-0.7,2.7-0.7c0.8,0,2.7,0.1,2.7,0.7
				C338.2,99.8,336.4,99.9,335.6,99.9z M333.6,99.2c0.3,0.1,1,0.2,2,0.2c1,0,1.6-0.1,2-0.2c-0.3-0.1-1-0.2-2-0.2
				C334.6,99,333.9,99.1,333.6,99.2z M337.7,99.3L337.7,99.3L337.7,99.3z"/>
		</g>
		<g>
			<path class="st5" d="M335.6,101.1c-1.2,0-3-0.3-3-0.9c0-0.8,0.4-1.2,0.5-1.2c0.1-0.1,0.2-0.1,0.3,0c0.1,0,0.1,0.1,0.1,0.1
				c0.2,0.1,0.9,0.3,2.2,0.3c1.3,0,2-0.2,2.2-0.3c0-0.1,0.1-0.1,0.1-0.1c0.1,0,0.2,0,0.3,0c0,0,0.5,0.4,0.5,1.2
				C338.6,100.8,336.8,101.1,335.6,101.1z M333,100.2c0.2,0.1,1.1,0.5,2.5,0.5c1.4,0,2.3-0.3,2.5-0.5c0-0.3-0.1-0.5-0.1-0.6
				c-0.6,0.3-1.8,0.3-2.4,0.3c-0.6,0-1.8,0-2.4-0.3C333.1,99.7,333.1,99.9,333,100.2z M337.7,99.2C337.7,99.2,337.7,99.2,337.7,99.2
				C337.7,99.2,337.7,99.2,337.7,99.2z M333.4,99.2C333.4,99.2,333.4,99.2,333.4,99.2C333.4,99.2,333.4,99.2,333.4,99.2z"/>
		</g>
		<g>
			<path class="st24" d="M317.9,105.4h2.1c0.8,0,1.5,0.7,1.5,1.5v0.9c0,0.2-0.2,0.4-0.4,0.4h-4.4c-0.2,0-0.4-0.2-0.4-0.4V107
				C316.3,106.1,317,105.4,317.9,105.4"/>
		</g>
		<g class="st9">
			<g>
				<g>
					<path class="st1" d="M321.5,106.5v0.7c0-0.6-0.5-1-1-1h-3.2c-0.6,0-1,0.5-1,1v-0.7c0-0.6,0.5-1,1-1h3.2
						C321.1,105.4,321.5,105.9,321.5,106.5"/>
				</g>
			</g>
		</g>
		<g>
			<path class="st24" d="M343.3,105.4h-2.1c-0.8,0-1.5,0.7-1.5,1.5v0.9c0,0.2,0.2,0.4,0.4,0.4h4.4c0.2,0,0.4-0.2,0.4-0.4V107
				C344.8,106.1,344.1,105.4,343.3,105.4"/>
		</g>
		<g>
			<path class="st24" d="M343.3,105.4h-2.1c-0.8,0-1.5,0.7-1.5,1.5v0.9c0,0.2,0.2,0.4,0.4,0.4h4.4c0.2,0,0.4-0.2,0.4-0.4V107
				C344.8,106.1,344.1,105.4,343.3,105.4"/>
		</g>
		<g class="st9">
			<g>
				<g>
					<path class="st1" d="M344.8,106.5v0.7c0-0.6-0.5-1-1-1h-3.2c-0.6,0-1,0.5-1,1v-0.7c0-0.6,0.5-1,1-1h3.2
						C344.3,105.4,344.8,105.9,344.8,106.5"/>
				</g>
			</g>
		</g>
		<g>
			<path class="st25" d="M344.8,106.5v1.6c0,0.2-0.1,0.3-0.3,0.3h-4.6c-0.2,0-0.3-0.1-0.3-0.3v-1.6c0,0,0,0,0,0
				c0,0.3,0.1,0.5,0.3,0.7c0.2,0.2,0.5,0.3,0.7,0.3h3.1C344.3,107.4,344.8,107,344.8,106.5C344.8,106.4,344.8,106.4,344.8,106.5"/>
		</g>
		<g>
			<path class="st25" d="M321.6,106.5v1.6c0,0.2-0.1,0.3-0.3,0.3h-4.6c-0.2,0-0.3-0.1-0.3-0.3v-1.6c0,0,0,0,0,0
				c0,0.3,0.1,0.5,0.3,0.7c0.2,0.2,0.5,0.3,0.7,0.3h3.1C321.1,107.4,321.5,107,321.6,106.5C321.6,106.4,321.6,106.4,321.6,106.5"/>
		</g>
		<g>
			<path class="st5" d="M344.4,108.6H340c-0.4,0-0.8-0.3-0.8-0.8V107c0-1,0.8-1.9,1.9-1.9h2.1c1,0,1.9,0.8,1.9,1.9v0.9
				C345.1,108.3,344.8,108.6,344.4,108.6z M341.1,105.8c-0.7,0-1.2,0.5-1.2,1.2v0.9c0,0,0,0.1,0.1,0.1h4.4c0,0,0.1,0,0.1-0.1V107
				c0-0.7-0.5-1.2-1.2-1.2H341.1z"/>
		</g>
		<g>
			<path class="st1" d="M323.8,102.5c0,0.5-2,0.8-4.5,0.8c-2.5,0-4.5-0.4-4.5-0.8s2-0.8,4.5-0.8C321.8,101.6,323.8,102,323.8,102.5"
				/>
		</g>
		<g>
			<path class="st5" d="M324,102.5c0,0.1-0.1,0.2-0.1,0.3c-0.1,0.1-0.1,0.1-0.2,0.1c-0.1,0.1-0.2,0.1-0.3,0.1
				c-0.2,0.1-0.4,0.1-0.6,0.2c-0.4,0.1-0.8,0.1-1.2,0.2c-0.4,0-0.8,0.1-1.2,0.1c-0.4,0-0.8,0-1.2,0c-0.8,0-1.6,0-2.4-0.1
				c-0.4,0-0.8-0.1-1.2-0.2c-0.2,0-0.4-0.1-0.6-0.2c-0.1,0-0.2-0.1-0.3-0.2c-0.1,0-0.1-0.1-0.2-0.1c-0.1-0.1-0.1-0.2-0.1-0.3
				c0-0.1,0.1-0.2,0.1-0.3c0.1-0.1,0.1-0.1,0.2-0.2c0.1-0.1,0.2-0.1,0.3-0.2c0.2-0.1,0.4-0.1,0.6-0.2c0.4-0.1,0.8-0.2,1.2-0.2
				c0.8-0.1,1.6-0.1,2.4-0.1c0.8,0,1.6,0.1,2.4,0.2c0.4,0.1,0.8,0.1,1.2,0.2c0.2,0.1,0.4,0.1,0.6,0.2c0.1,0,0.2,0.1,0.3,0.2
				c0.1,0,0.1,0.1,0.2,0.1C324,102.3,324,102.4,324,102.5 M323.6,102.5C323.6,102.5,323.6,102.5,323.6,102.5
				C323.6,102.5,323.5,102.5,323.6,102.5c-0.1-0.1-0.2-0.1-0.3-0.1c-0.2-0.1-0.3-0.1-0.5-0.1c-0.4-0.1-0.7-0.1-1.1-0.2
				c-0.8-0.1-1.5-0.1-2.3-0.1c-0.8,0-1.5,0-2.3,0.1c-0.4,0-0.8,0.1-1.1,0.2c-0.2,0-0.4,0.1-0.5,0.1c-0.1,0-0.2,0.1-0.2,0.1
				c0,0,0,0-0.1,0c0,0,0,0,0-0.1c0,0,0-0.1,0,0c0,0,0,0,0,0c0.1,0,0.1,0.1,0.2,0.1c0.2,0.1,0.3,0.1,0.5,0.2c0.4,0.1,0.7,0.2,1.1,0.2
				c0.8,0.1,1.5,0.2,2.3,0.2c0.4,0,0.8,0,1.2,0c0.4,0,0.8,0,1.2-0.1c0.4-0.1,0.8-0.1,1.1-0.2c0.2,0,0.4-0.1,0.5-0.2
				C323.4,102.6,323.5,102.6,323.6,102.5C323.5,102.5,323.6,102.5,323.6,102.5C323.6,102.5,323.6,102.5,323.6,102.5"/>
		</g>
		<g>
			<path class="st5" d="M316.3,102.3c0,0.1,0.4,0.2,0.9,0.2c0.5,0,0.9-0.1,0.9-0.2c0-0.2,0-0.4-0.9-0.4
				C316.3,101.9,316.3,102.2,316.3,102.3"/>
		</g>
		<g>
			<path class="st5" d="M318.6,102.7c0,0.1,0.4,0.2,0.9,0.2c0.5,0,0.9-0.1,0.9-0.2c0-0.2,0-0.4-0.9-0.4
				C318.6,102.3,318.6,102.6,318.6,102.7"/>
		</g>
		<g>
			<path class="st5" d="M320.5,102.4c0,0.1,0.4,0.2,0.9,0.2c0.5,0,0.9-0.1,0.9-0.2c0-0.2,0-0.4-0.9-0.4
				C320.5,102,320.5,102.2,320.5,102.4"/>
		</g>
		<g>
			<path class="st5" d="M318.3,102c0,0.1,0.4,0.2,0.9,0.2c0.5,0,0.9-0.1,0.9-0.2c0-0.2,0-0.4-0.9-0.4
				C318.3,101.6,318.3,101.8,318.3,102"/>
		</g>
		<g>
			<path class="st5" d="M339,102.3c0,0.1,0.4,0.2,0.9,0.2c0.5,0,0.9-0.1,0.9-0.2c0-0.2,0-0.4-0.9-0.4S339,102.2,339,102.3"/>
		</g>
		<g>
			<path class="st5" d="M341.2,102.7c0,0.1,0.4,0.2,0.9,0.2c0.5,0,0.9-0.1,0.9-0.2c0-0.2,0-0.4-0.9-0.4
				C341.2,102.3,341.2,102.6,341.2,102.7"/>
		</g>
		<g>
			<path class="st5" d="M343.1,102.4c0,0.1,0.4,0.2,0.9,0.2c0.5,0,0.9-0.1,0.9-0.2c0-0.2,0-0.4-0.9-0.4
				C343.1,102,343.1,102.2,343.1,102.4"/>
		</g>
		<g>
			<path class="st5" d="M341,102c0,0.1,0.4,0.2,0.9,0.2s0.9-0.1,0.9-0.2c0-0.2,0-0.4-0.9-0.4S341,101.8,341,102"/>
		</g>
		<g>
			<path class="st5" d="M321.1,108.6h-4.4c-0.4,0-0.8-0.3-0.8-0.8V107c0-1,0.8-1.9,1.9-1.9h2.1c1,0,1.9,0.8,1.9,1.9v0.9
				C321.9,108.3,321.5,108.6,321.1,108.6z M317.9,105.8c-0.7,0-1.2,0.5-1.2,1.2v0.9c0,0,0,0.1,0.1,0.1h4.4c0,0,0.1,0,0.1-0.1V107
				c0-0.7-0.5-1.2-1.2-1.2H317.9z"/>
		</g>
		<g>
			<path class="st24" d="M336.2,106c-0.4,0.9-1.7,0.8-1.7,0.8l-0.8,0h-6.3l-0.8,0c0,0-1.3,0.1-1.7-0.8c-0.4-0.9-0.2-2.5,0.1-3.2
				c0.3-0.7,0.5-0.6,0.9-0.6c0.4,0,4,0.1,4.6,0.1s4.2-0.1,4.6-0.1c0.4,0,0.6-0.1,0.9,0.6C336.4,103.5,336.5,105.1,336.2,106"/>
		</g>
		<g class="st9">
			<g>
				<g>
					<path class="st1" d="M336.4,105c0-0.6-0.1-1.1-0.3-1.4c-0.3-0.7-0.5-0.6-0.9-0.6c-0.4,0-4,0.1-4.6,0.1c-0.6,0-4.2-0.1-4.6-0.1
						c-0.4,0-0.6-0.1-0.9,0.6c-0.1,0.3-0.2,0.8-0.3,1.4c-0.1-0.8,0.1-1.7,0.3-2.2c0.3-0.7,0.5-0.6,0.9-0.6c0.4,0,4,0.1,4.6,0.1
						c0.6,0,4.2-0.1,4.6-0.1c0.4,0,0.6-0.1,0.9,0.6C336.3,103.3,336.4,104.2,336.4,105"/>
				</g>
			</g>
		</g>
		<g>
			<path class="st25" d="M336.2,106c-0.4,0.9-1.7,0.8-1.7,0.8l-0.8,0h-6.3l-0.8,0c0,0-1.3,0.1-1.7-0.8c-0.2-0.5-0.2-1.2-0.2-1.8
				c0,0.3,0.1,0.7,0.2,0.9c0.4,0.9,1.7,0.8,1.7,0.8h7.9c0,0,1.3,0.1,1.7-0.8c0.1-0.3,0.2-0.6,0.2-0.9
				C336.4,104.8,336.4,105.5,336.2,106"/>
		</g>
		<g>
			<path class="st5" d="M326.5,107.1c-0.4,0-1.5-0.1-1.8-1c-0.4-1-0.2-2.7,0.1-3.4c0.3-0.7,0.6-0.8,1.1-0.8c0,0,0.1,0,0.1,0
				c0.4,0,4,0.1,4.6,0.1c0.6,0,4.2-0.1,4.6-0.1c0.1,0,0.1,0,0.1,0c0.5,0,0.8,0.1,1.1,0.8c0.3,0.7,0.5,2.4,0.1,3.4
				c-0.4,1.1-1.8,1-2,1l-7.1,0l-0.8,0C326.6,107.1,326.6,107.1,326.5,107.1z M334.5,106.5L334.5,106.5c0,0,1.1,0.1,1.3-0.6l0,0
				c0.3-0.8,0.2-2.3-0.1-2.9c-0.2-0.4-0.2-0.4-0.4-0.4c-0.1,0-0.1,0-0.2,0c-0.4,0-4,0.1-4.6,0.1c-0.6,0-4.2-0.1-4.6-0.1
				c-0.1,0-0.1,0-0.2,0c-0.3,0-0.3,0-0.4,0.4c-0.3,0.6-0.4,2.1-0.1,2.9c0.3,0.7,1.3,0.6,1.3,0.6l0,0l7.1,0L334.5,106.5z"/>
		</g>
		<g>
			<path class="st6" d="M360.1,121.6c-0.2-4.5,0.3-10.2,2.3-10.9c1.8-0.6,2.8,3.4,2.8,3.4s2-4.6,3.7-4.4c1.7,0.3,1.4,5.3,1.4,5.3
				s2.2-2.5,3.6-1.8c2.6,1.2-1.7,15.4-6.6,17.4c-3.5,1.4-6.4-0.4-6.9-3"/>
		</g>
		<g>
			<path class="st8" d="M330.6,80.3c0,0,23.1,1.5,28.8-9.4c4.1-7.7,1.5-18.2-1.1-25.9c-2.1-6.2-4.6-18.6-12.3-19.8
				c-1.8-0.3-4.6,0.7-7.1,3.1c-2.9-0.9-6.7-1-8.2-1c-1.6,0-5.3,0.1-8.2,1c-2.6-2.3-5.3-3.3-7.1-3.1c-7.7,1.2-10.2,13.6-12.3,19.8
				c-2.6,7.7-6.9,14.7-1.9,23.4C308.1,80.7,330.6,80.3,330.6,80.3"/>
		</g>
		<g>
			<path class="st8" d="M359.4,70.9c-0.9,1.6-2.1,3-3.6,4.1c-8.5,6.4-25.2,5.3-25.2,5.3s-13.9,0.3-23.3-5.6
				c-2.6-1.6-4.8-3.7-6.3-6.3c-5-8.7-0.7-15.7,1.9-23.4c2.1-6.2,4.6-18.6,12.3-19.8c1.8-0.3,4.6,0.7,7.1,3.1c2.9-0.9,6.7-1,8.2-1
				c1.6,0,5.3,0.1,8.2,1c2.6-2.3,5.3-3.3,7.1-3.1c7.7,1.2,10.2,13.6,12.3,19.8C360.8,52.6,363.4,63.1,359.4,70.9"/>
		</g>
		<g>
			<path class="st6" d="M359.4,70.9c-0.9,1.6-2.1,3-3.6,4.1c-8.5,6.4-25.2,5.3-25.2,5.3s-13.9,0.3-23.3-5.6
				c-2.6-1.6-4.8-3.7-6.3-6.3c-5-8.7-0.7-15.7,1.9-23.4c2.1-6.2,4.6-18.6,12.3-19.8c1.8-0.3,4.6,0.7,7.1,3.1c2.9-0.9,6.7-1,8.2-1
				c1.6,0,5.3,0.1,8.2,1c2.6-2.3,5.3-3.3,7.1-3.1c7.7,1.2,10.2,13.6,12.3,19.8C360.8,52.6,363.4,63.1,359.4,70.9"/>
		</g>
		<g class="st9">
			<g>
				<g>
					<path class="st1" d="M361.5,62.4c-0.2-5.3-1.7-10.7-3.2-15.2c-2.1-6.2-4.6-18.6-12.3-19.8c-1.8-0.3-6.1,0.7-8.7,3.1
						c-2.9-0.9-5.1-1-6.7-1c-1.6,0-3.9,0.1-6.8,1c-2.6-2.3-6.8-3.3-8.6-3.1c-7.7,1.2-10.2,13.6-12.3,19.8c-1.6,4.7-3.8,9.2-4.2,14
						c-0.4-5.7,2.3-10.8,4.2-16.3c2.1-6.2,4.6-18.6,12.3-19.8c1.8-0.3,4.6,0.7,7.1,3.1c2.9-0.9,6.7-1,8.2-1c1.6,0,5.3,0.1,8.2,1
						c2.6-2.3,5.3-3.3,7.1-3.1c7.7,1.2,10.2,13.6,12.3,19.8C360,50.1,361.7,56.4,361.5,62.4"/>
				</g>
			</g>
		</g>
		<g class="st4">
			<path class="st5" d="M359.4,70.8c-0.9,1.6-2.1,3-3.6,4.1c-8.5,6.4-25.2,5.3-25.2,5.3s-13.9,0.3-23.3-5.6
				c-2.6-1.6-4.8-3.7-6.3-6.3c-2.6-4.6-2.7-8.7-1.7-12.7c0.2,2,0.7,4.1,1.7,6.4c1.1,2.6,3.3,5.6,6.3,6.3c4.4,1,7.3-2.4,9.4-6.4
				c3.5-6.9,14,12.1,14,12.1s11.8-17.7,14.1-10.4c2.5,8,8.3,7.2,11.1,5.1c1.5-1.1,2.7-2.5,3.6-4.1c1.1-2,1.7-4.3,1.9-6.6
				C361.8,62.5,361.4,67,359.4,70.8"/>
		</g>
		<g>
			<path class="st10" d="M355.8,74.9c-8.5,6.4-25.2,5.3-25.2,5.3s-13.9,0.3-23.3-5.6c-0.9-1.7-1.8-4.1-1.8-7
				c0.6,0.3,1.1,0.6,1.8,0.7c3.8,0.8,6.5-1.5,8.4-4.7c2.4,1.1,5.5,1.9,9.5,2.1c2.9,3.8,5.4,8.3,5.4,8.3s3.9-5.9,7.7-9.5
				c1.1-0.2,2.2-0.3,3-0.4c1.2-0.1,2.4-0.3,3.5-0.5c2.5,7.9,8.3,7.2,11.1,5c0.1-0.1,0.2-0.2,0.3-0.2
				C356.5,70.4,356.4,72.7,355.8,74.9"/>
		</g>
		<g>
			<path class="st11" d="M355.8,74.9c-8.5,6.4-25.2,5.3-25.2,5.3s-13.9,0.3-23.3-5.6c-1.8-3.4-3.5-9.4,1.6-16.4
				c0,0,5.2,8.5,20.6,7.4c2.9-0.2,8.8-1.2,11.8-1.5c5.3-0.6,9.8-2.4,13,0.6C356.4,66.6,356.9,71,355.8,74.9"/>
		</g>
		<g class="st4">
			<path class="st5" d="M355.8,74.9c-8.5,6.4-25.2,5.3-25.2,5.3s-13.9,0.3-23.3-5.6c-0.9-1.7-1.8-4.1-1.8-7c0.6,0.3,1.1,0.6,1.8,0.7
				c3.8,0.8,6.5-1.5,8.4-4.7c2.4,1.1,5.5,1.9,9.5,2.1c2.9,3.8,5.4,8.3,5.4,8.3s3.9-5.9,7.7-9.5c1.1-0.2,2.2-0.3,3-0.4
				c1.2-0.1,2.4-0.3,3.5-0.5c2.5,7.9,8.3,7.2,11.1,5c0.1-0.1,0.2-0.2,0.3-0.2C356.5,70.4,356.4,72.7,355.8,74.9"/>
		</g>
		<g>
			<path class="st5" d="M333.4,81c-1.6,0-2.7-0.1-2.8-0.1c-0.5,0-5.9,0-12.3-1.4c-8.7-1.9-14.9-5.7-17.9-10.9
				c-4.3-7.5-1.9-14,0.5-20.2c0.5-1.2,0.9-2.5,1.4-3.7c0.3-0.9,0.6-1.9,1-3c2.1-6.8,4.9-16.1,11.9-17.2c2.1-0.3,4.9,0.8,7.4,3
				c2.8-0.8,6.2-0.9,8.1-0.9c1.8,0,5.3,0.1,8.1,0.9c2.5-2.2,5.3-3.3,7.4-3c7,1.1,9.8,10.4,11.9,17.2c0.3,1.1,0.6,2.1,1,3
				c2.5,7.4,5.3,18.3,1.1,26.4c-2.5,4.7-8.2,7.8-17,9.2C339.2,80.9,335.7,81,333.4,81z M330.6,79.6L330.6,79.6
				c0.3,0,22.7,1.4,28.2-9.1c4-7.7,1.3-18.2-1.2-25.4c-0.3-0.9-0.6-2-1-3.1c-2-6.5-4.6-15.3-10.8-16.3c-1.3-0.2-3.9,0.4-6.6,2.9
				L339,29l-0.4-0.1c-2.7-0.8-6.2-0.9-8-0.9s-5.3,0.1-8,0.9l-0.4,0.1l-0.3-0.3c-2.7-2.5-5.3-3.1-6.6-2.9c-6.2,1-8.8,9.8-10.8,16.3
				c-0.3,1.1-0.7,2.2-1,3.1c-0.4,1.3-0.9,2.5-1.4,3.8c-2.4,6.2-4.6,12.1-0.6,19.1C308.4,79.9,330.4,79.6,330.6,79.6L330.6,79.6z"/>
		</g>
		<g>
			<path class="st5" d="M339.1,47.3c0,3.4,2.3,6.2,5.2,6.2c2.9,0,5.2-2.8,5.2-6.2c0-1.6-0.5-3.1-1.4-4.2l-9,3.4
				C339.1,46.8,339.1,47.1,339.1,47.3"/>
		</g>
		<g>
			<path class="st1" d="M341.8,49.7c0,1.4,0.9,2.5,2.1,2.5c1.2,0,2.1-1.1,2.1-2.5c0-1.4-0.9-2.5-2.1-2.5
				C342.7,47.3,341.8,48.4,341.8,49.7"/>
		</g>
		<g class="st21">
			<path class="st1" d="M345.6,45.6c0,0.6,0.4,1.1,0.8,1.1c0.5,0,0.8-0.5,0.8-1.1c0-0.6-0.4-1.1-0.8-1.1
				C345.9,44.5,345.6,45,345.6,45.6"/>
		</g>
		<g>
			<path class="st5" d="M351,42.9c-0.6,0-1.1,0.1-1.7,0.3c-0.5,0.2-1.1,0.4-1.6,0.6c-1.1,0.4-2.1,0.9-3.2,1.3
				c-1.1,0.5-2.1,0.9-3.2,1.4l-0.4,0.2c-0.2,0.1-0.3,0.1-0.5,0.2c-0.1,0-0.2,0-0.3,0.1c-0.1,0-0.2,0-0.3,0c-0.2,0-0.4,0-0.5,0
				c-0.4,0-0.7-0.1-1-0.3c-0.2-0.1-0.3-0.2-0.4-0.3c-0.1-0.1-0.2-0.2-0.3-0.3c-0.1-0.2-0.1-0.4,0.1-0.5c0.1-0.1,0.2-0.1,0.2-0.1l0,0
				c0.2,0,0.3,0,0.5,0.1c0.1,0,0.3,0,0.4,0.1c0.2,0,0.5,0,0.7,0c0.1,0,0.2,0,0.3,0c0.1,0,0.1,0,0.2,0c0,0,0.1,0,0.1,0
				c0.1,0,0.2-0.1,0.3-0.1l0.4-0.2c1.1-0.6,2.1-1.1,3.3-1.6c1.1-0.4,2.3-0.8,3.5-1c0.6-0.1,1.2-0.2,1.9-0.2c0.3,0,0.6,0,1,0.1
				c0.3,0.1,0.6,0.1,0.9,0.3c0.1,0,0.1,0.1,0.1,0.2C351.1,42.9,351.1,42.9,351,42.9L351,42.9z"/>
		</g>
		<g>
			<path class="st5" d="M322.1,47.3c0,3.4-2.3,6.2-5.2,6.2c-2.9,0-5.2-2.8-5.2-6.2c0-1.6,0.5-3.1,1.4-4.2l9,3.4
				C322.1,46.8,322.1,47.1,322.1,47.3"/>
		</g>
		<g>
			<path class="st1" d="M319.4,49.7c0,1.4-0.9,2.5-2.1,2.5c-1.2,0-2.1-1.1-2.1-2.5c0-1.4,0.9-2.5,2.1-2.5
				C318.5,47.3,319.4,48.4,319.4,49.7"/>
		</g>
		<g class="st21">
			<path class="st1" d="M315.6,45.6c0,0.6-0.4,1.1-0.8,1.1c-0.5,0-0.8-0.5-0.8-1.1c0-0.6,0.4-1.1,0.8-1.1
				C315.2,44.5,315.6,45,315.6,45.6"/>
		</g>
		<g>
			<path class="st5" d="M310.1,42.6c0.3-0.2,0.6-0.2,0.9-0.3c0.3,0,0.6-0.1,1-0.1c0.6,0,1.3,0.1,1.9,0.2c1.2,0.2,2.4,0.6,3.5,1
				c1.1,0.4,2.2,1,3.3,1.6l0.4,0.2c0.1,0.1,0.2,0.1,0.3,0.1c0,0,0.1,0,0.1,0c0.1,0,0.1,0,0.2,0c0.1,0,0.2,0,0.3,0c0.2,0,0.5,0,0.7,0
				c0.1,0,0.2,0,0.4-0.1c0.1,0,0.3-0.1,0.5-0.1l0,0c0.2,0,0.4,0.1,0.4,0.3c0,0.1,0,0.2-0.1,0.2c-0.1,0.1-0.2,0.2-0.3,0.3
				c-0.1,0.1-0.3,0.2-0.4,0.3c-0.3,0.2-0.7,0.3-1,0.3c-0.2,0-0.4,0-0.5,0c-0.1,0-0.2,0-0.3,0c-0.1,0-0.2,0-0.3-0.1
				c-0.2,0-0.4-0.1-0.5-0.2l-0.4-0.2c-1.1-0.5-2.2-0.9-3.2-1.4c-1.1-0.5-2.1-0.9-3.2-1.3c-0.5-0.2-1.1-0.4-1.6-0.6
				c-0.5-0.2-1.1-0.3-1.7-0.3h0c-0.1,0-0.2-0.1-0.2-0.2C310,42.7,310,42.6,310.1,42.6"/>
		</g>
		<g>
			<path class="st5" d="M307,61.4c0-0.7,0.2-1.3,0.5-1.9c0.3-0.6,0.6-1.2,1-1.7c0.4-0.5,0.9-1,1.5-1.4c0.6-0.4,1.3-0.6,2-0.6
				c0.2,0,0.3,0.1,0.4,0.3c0,0.1-0.1,0.3-0.2,0.3l0,0c-0.5,0.3-1,0.6-1.4,0.9c-0.4,0.4-0.8,0.8-1.2,1.2c-0.4,0.4-0.7,0.9-1,1.4
				c-0.3,0.5-0.6,1-0.9,1.6l0,0c-0.1,0.2-0.3,0.2-0.5,0.1C307,61.6,307,61.5,307,61.4"/>
		</g>
		<g>
			<path class="st5" d="M317.4,64.7c-0.1,0-0.1,0-0.2,0c-6.4-2.2-8.8-5.9-8.9-6.1c-0.2-0.3-0.1-0.7,0.2-0.9c0.3-0.2,0.7-0.1,0.9,0.2
				c0,0,2.3,3.5,8.2,5.5c0.4,0.1,0.5,0.5,0.4,0.9C318,64.6,317.7,64.7,317.4,64.7z"/>
		</g>
		<g>
			<path class="st5" d="M338.7,64.3c0.3-0.1,0.5-0.3,0.8-0.4c0.3-0.1,0.5-0.2,0.8-0.3c0.5-0.2,1.1-0.4,1.7-0.5
				c1.1-0.3,2.3-0.5,3.4-0.7c1.2-0.1,2.3-0.1,3.5,0c1.2,0.1,2.3,0.3,3.4,0.7c0.2,0.1,0.3,0.2,0.2,0.4c-0.1,0.2-0.2,0.3-0.4,0.2l0,0
				c-1.1-0.3-2.2-0.5-3.2-0.5c-1.1,0-2.2,0-3.3,0.2c-1.1,0.2-2.2,0.4-3.2,0.8c-0.5,0.2-1,0.4-1.5,0.6c-0.3,0.1-0.5,0.2-0.7,0.3
				c-0.2,0.1-0.5,0.2-0.7,0.4l0,0c-0.3,0.2-0.7,0.1-0.9-0.3C338.3,64.9,338.4,64.5,338.7,64.3C338.7,64.3,338.7,64.3,338.7,64.3"/>
		</g>
		<g>
			<path class="st27" d="M316.1,65.5c0,0-0.2,4.5,4.3,6.4c3.5,1.4,13.4,3.9,20.4,1.4c4.3-1.6,4.1-7,4.1-7L316.1,65.5z"/>
		</g>
		<g>
			<path class="st5" d="M333.7,75.4c-5.5,0-11-1.4-13.5-2.5c-5-2-4.8-7-4.8-7l0-0.7l30.1,0.8l0,0.6c0,0.2,0.2,6-4.5,7.7
				C338.8,75.1,336.3,75.4,333.7,75.4z M316.8,66.6c0.1,1.2,0.8,3.8,3.9,5c3.6,1.5,13.2,3.8,19.9,1.4c3-1.1,3.5-4.3,3.6-5.7
				L316.8,66.6z"/>
		</g>
		<g>
			<path class="st1" d="M316.6,67.3c0,0,1.3,5.4,3.2,5.5c1.9,0.2,1.7-5.1,1.7-5.1L316.6,67.3z"/>
		</g>
		<g>
			<path class="st5" d="M319.9,73.5c0,0-0.1,0-0.2,0c-2.3-0.2-3.5-5.1-3.8-6.1l-0.2-0.9l6.4,0.6l0,0.6c0,0.7,0.1,4.2-1.1,5.4
				C320.7,73.3,320.3,73.5,319.9,73.5z M317.5,68c0.6,2.1,1.6,4.1,2.3,4.1c0.1,0,0.1,0,0.2-0.1c0.5-0.5,0.7-2.3,0.7-3.7L317.5,68z"
				/>
		</g>
		<g>
			<path class="st1" d="M344.4,68c0,0-1.3,5.4-3.2,5.5c-1.9,0.2-1.7-5.1-1.7-5.1L344.4,68z"/>
		</g>
		<g>
			<path class="st5" d="M341.1,74.2c-0.4,0-0.8-0.2-1.1-0.5c-1.3-1.2-1.2-4.7-1.1-5.4l0-0.6l6.4-0.6l-0.2,0.9
				c-0.2,1-1.5,5.9-3.8,6.1C341.2,74.2,341.2,74.2,341.1,74.2z M340.2,69c0,1.4,0.2,3.2,0.7,3.7c0.1,0.1,0.1,0.1,0.2,0.1
				c0.8-0.1,1.8-2.2,2.3-4.1L340.2,69z"/>
		</g>
		<g>
			<path class="st6" d="M328.7,68.5c3.1-0.1,9.3,5,14.9,1c2.5-1.8,1.5-8.4-1.3-10.5c-3.7-2.7-9.1-1.7-11.7-1.8
				c-2.8-0.1-7.6-1.6-11.8,1.8c-2.6,2.1-4.3,7.3-1.7,9.5C320.3,71.4,325.9,68.5,328.7,68.5"/>
		</g>
		<g class="st4">
			<path class="st5" d="M343.5,69.1c-5.6,4-11.7-1.1-14.9-1c-2.8,0.1-8.3,2.9-11.6,0.1c-1.2-1-1.5-2.7-1.2-4.3
				c0.2,0.9,0.5,1.6,1.2,2.2c3.2,2.8,8.8-0.1,11.6-0.1c3.1-0.1,9.3,5,14.9,1c0.8-0.6,1.2-1.6,1.4-2.8
				C345.1,66.3,344.7,68.2,343.5,69.1"/>
		</g>
		<g class="st9">
			<g>
				<g>
					<path class="st1" d="M344.9,66.4c-0.2-2.3-1.2-4.8-2.7-6c-3.7-2.7-9.1-1.7-11.7-1.8c-2.8-0.1-7.6-1.6-11.8,1.8
						c-1.5,1.2-2.7,3.5-2.9,5.6c-0.3-2.5,1.1-5.5,2.9-7c4.2-3.3,8.9-1.9,11.8-1.8c2.6,0.1,8-1,11.7,1.8
						C344.1,60.4,345.2,63.8,344.9,66.4"/>
				</g>
			</g>
		</g>
		<g>
			<path class="st5" d="M338.8,71.7c-2.4,0-4.7-0.9-6.6-1.6c-1.4-0.5-2.6-1-3.5-1l0,0c-0.7,0-1.8,0.3-2.9,0.5
				c-2.9,0.7-6.6,1.6-9.1-0.6c-1-0.9-1.6-2.3-1.5-3.9c0.1-2.5,1.4-5.2,3.2-6.7c3.6-2.9,7.5-2.4,10.4-2.1c0.7,0.1,1.3,0.1,1.8,0.2
				c0.5,0,1.2,0,1.9-0.1c3-0.1,7-0.3,10.1,1.9c2,1.5,3,4.8,3,7.3c0,2-0.6,3.5-1.7,4.2C342.2,71.2,340.5,71.7,338.8,71.7z
				 M328.7,67.8c1.1,0,2.4,0.5,3.9,1c3.1,1.2,7,2.6,10.5,0.1c0.7-0.5,1.1-1.7,1.2-3.2c0-2.5-1-5.2-2.5-6.2c-2.7-2-6.5-1.8-9.2-1.7
				c-0.8,0-1.5,0.1-2.1,0.1c-0.6,0-1.2-0.1-1.9-0.2c-2.8-0.3-6.2-0.7-9.4,1.8c-1.5,1.2-2.7,3.6-2.7,5.6c0,0.9,0.2,2,1.1,2.8
				c2,1.7,5.3,0.9,7.9,0.3C326.7,68.1,327.8,67.8,328.7,67.8L328.7,67.8C328.7,67.8,328.7,67.8,328.7,67.8z"/>
		</g>
		<g>
			<path class="st5" d="M323.9,60.9c0.5,0.6,1.2,0.9,1.7,0.6c0.4-0.3,0.4-1-0.1-1.6c-0.5-0.6-1.2-0.9-1.7-0.6
				C323.4,59.6,323.4,60.3,323.9,60.9"/>
		</g>
		<g>
			<path class="st5" d="M337.4,60.9c-0.5,0.6-1.2,0.9-1.7,0.6c-0.4-0.3-0.4-1,0.1-1.6c0.5-0.6,1.2-0.9,1.7-0.6
				C337.9,59.6,337.9,60.3,337.4,60.9"/>
		</g>
		<g>
			<path class="st5" d="M341.4,56c-0.2-0.1-0.4-0.3-0.6-0.4c-0.2-0.1-0.4-0.3-0.6-0.4c-0.4-0.2-0.8-0.5-1.3-0.6
				c-0.8-0.4-1.7-0.6-2.6-0.7c-0.1,0-0.2,0-0.3,0c-0.1,0-0.2,0-0.3,0c-0.2,0-0.5,0-0.7,0c-0.5,0-0.9,0.1-1.4,0.2
				c-0.5,0.1-1,0.2-1.5,0.2c-0.5,0.1-1,0.1-1.5,0.1c-0.5,0-1,0-1.5-0.1c-0.5-0.1-1-0.1-1.5-0.2c-0.5-0.1-0.9-0.2-1.4-0.2
				c-0.2,0-0.5,0-0.7,0c-0.1,0-0.2,0-0.3,0c-0.1,0-0.2,0-0.3,0c-0.9,0.1-1.8,0.3-2.6,0.7c-0.4,0.2-0.8,0.4-1.3,0.6
				c-0.2,0.1-0.4,0.2-0.6,0.4c-0.2,0.1-0.4,0.3-0.6,0.4l0,0c-0.2,0.1-0.4,0.1-0.5-0.1c-0.1-0.1-0.1-0.3,0-0.4c0.4-0.4,0.8-0.7,1.2-1
				c0.4-0.3,0.8-0.6,1.3-0.8c0.9-0.5,1.9-0.9,2.9-1c0.1,0,0.3,0,0.4,0c0.1,0,0.3,0,0.4,0c0.3,0,0.5,0,0.8,0c0.5,0,1,0.1,1.5,0.2
				c0.5,0.1,1,0.2,1.4,0.2c0.5,0,0.9,0.1,1.4,0.1c0.5,0,0.9,0,1.4-0.1c0.5,0,0.9-0.1,1.4-0.2c0.5-0.1,1-0.1,1.5-0.2
				c0.3,0,0.5,0,0.8,0c0.1,0,0.3,0,0.4,0c0.1,0,0.3,0,0.4,0c1.1,0.1,2,0.5,2.9,1c0.4,0.2,0.9,0.5,1.3,0.8c0.4,0.3,0.8,0.6,1.2,1
				c0.1,0.1,0.1,0.3,0,0.5C341.7,56.1,341.5,56.1,341.4,56L341.4,56z"/>
		</g>
		<g>
			<path class="st5" d="M336.1,32.2c0.1-0.4,0.3-0.8,0.4-1.2c0.2-0.4,0.3-0.8,0.5-1.1c0.2-0.4,0.4-0.7,0.6-1.1
				c0.2-0.4,0.5-0.7,0.8-1.1c0.2-0.3,0.7-0.3,1-0.1c0.3,0.2,0.3,0.7,0.1,1c0,0,0,0-0.1,0.1c-0.3,0.2-0.5,0.5-0.8,0.8
				c-0.2,0.3-0.5,0.6-0.7,0.9c-0.2,0.3-0.4,0.7-0.6,1c-0.2,0.3-0.4,0.7-0.6,1l0,0c-0.1,0.2-0.3,0.2-0.5,0.1
				C336.1,32.5,336,32.4,336.1,32.2"/>
		</g>
		<g>
			<path class="st5" d="M324.5,32.5c-0.2-0.3-0.4-0.7-0.6-1c-0.2-0.3-0.4-0.7-0.6-1c-0.2-0.3-0.4-0.6-0.7-0.9
				c-0.2-0.3-0.5-0.6-0.8-0.8c-0.3-0.2-0.3-0.7-0.1-1c0.2-0.3,0.7-0.3,1-0.1c0,0,0,0,0.1,0.1c0.3,0.3,0.5,0.7,0.8,1.1
				c0.2,0.4,0.4,0.7,0.6,1.1c0.2,0.4,0.3,0.8,0.5,1.1c0.2,0.4,0.3,0.8,0.4,1.2c0.1,0.2,0,0.4-0.2,0.4
				C324.7,32.7,324.6,32.6,324.5,32.5L324.5,32.5z"/>
		</g>
		<g>
			<path class="st6" d="M310.3,92.9c2.9,2.4,6.6,4.5,6.6,4.5s-3.9,7.2-3.7,12.1c-4.6,0.2-9.2-2.3-10.7-4.9c-2.6-4.3-2.3-9,2.7-16.4"
				/>
		</g>
		<g>
			<path class="st17" d="M301,100.6c0.2,1.4,0.7,2.7,1.5,3.9c1.6,2.6,6.1,5.1,10.7,4.9c0-0.7,0-1.5,0.2-2.3
				C310.4,106.7,305,105.2,301,100.6"/>
		</g>
		<g>
			<path class="st5" d="M310.5,92.6c0.6,0.3,1.2,0.7,1.7,1c0.6,0.3,1.1,0.7,1.7,1.1c0.6,0.4,1.1,0.7,1.7,1c0.6,0.3,1.1,0.7,1.7,1
				l0.6,0.3l-0.3,0.6c-0.5,0.9-0.9,1.9-1.3,2.8c-0.4,1-0.8,1.9-1.1,2.9c-0.2,0.5-0.3,1-0.5,1.5c-0.1,0.5-0.3,1-0.4,1.5
				c-0.2,1-0.4,2-0.4,3v0l0,0.7l-0.7,0c-1.3,0.1-2.6-0.1-3.9-0.4c-1.3-0.3-2.5-0.8-3.6-1.4c-1.1-0.6-2.2-1.4-3.1-2.5
				c-0.2-0.3-0.4-0.5-0.6-0.8c-0.2-0.3-0.3-0.6-0.5-0.9c-0.3-0.6-0.6-1.2-0.8-1.8c-0.4-1.3-0.6-2.6-0.5-3.9c0.1-1.3,0.4-2.6,0.8-3.8
				c0.9-2.4,2.2-4.7,3.5-6.8c0.2-0.3,0.6-0.4,0.9-0.2c0.3,0.2,0.4,0.6,0.2,0.9l0,0l0,0c-1.4,2.1-2.6,4.2-3.4,6.5
				c-0.4,1.1-0.7,2.3-0.7,3.5c-0.1,1.2,0.1,2.3,0.4,3.5c0.2,0.6,0.4,1.1,0.7,1.6c0.1,0.3,0.3,0.5,0.4,0.8c0.1,0.2,0.3,0.5,0.5,0.7
				c0.7,0.9,1.7,1.6,2.7,2.2c2.1,1.1,4.5,1.8,6.8,1.7l-0.6,0.7v0c-0.1-1.1,0.1-2.3,0.3-3.4c0.2-1.1,0.5-2.1,0.9-3.2
				c0.3-1,0.8-2,1.2-3c0.2-0.5,0.4-1,0.7-1.5c0.2-0.5,0.5-1,0.7-1.5l0.3,1c-0.6-0.3-1.2-0.7-1.7-1.1c-0.6-0.4-1.1-0.7-1.7-1.1
				c-0.6-0.4-1.1-0.8-1.6-1.2c-0.5-0.4-1-0.9-1.4-1.5c-0.1-0.1-0.1-0.4,0.1-0.5C310.3,92.6,310.4,92.5,310.5,92.6L310.5,92.6z"/>
		</g>
		<g>
			<path class="st6" d="M322.7,109.7c-2,2.6-5.2,2.3-5.2,2.3s-0.2,0.9-2,1c-2.6,0.1-6.7-2.9-6.9-6.6c0-0.2,0-0.3,0-0.5l4.5-8.3
				c0,0,3-3.6,6.9-1.9c2,0.8,1.9,3.6,1.3,5.1c-0.3,0.6-0.6,1.1-0.9,1c-1.6-0.2-2.8-2.8-3.9-0.7c-1.1,2.1-0.4,4.9,2.8,5.6
				C323.9,107.8,323.4,108.9,322.7,109.7"/>
		</g>
		<g class="st9">
			<g>
				<g>
					<path class="st1" d="M321.5,100.8l0,0.1c0.1-1.5-0.2-3.2-1.6-4.1c-1.7-1.1-5.1-0.4-6.4,0.7l-0.3,0.2c0,0,3-3.6,6.9-1.9
						C322.1,96.5,322.1,99.3,321.5,100.8"/>
				</g>
			</g>
		</g>
		<g>
			<path class="st17" d="M322.7,109.7c-2,2.6-5.2,2.3-5.2,2.3s-0.2,0.9-2,1c-2.6,0.1-6.7-2.9-6.9-6.6c0.4,1,1.4,2.9,2.1,2.5
				c0.4-0.2-0.7-2-0.7-2s3.9,3.4,7,3.5c3.1,0,5.1-1.3,5.1-2.1c0-0.8-4.3-1.1-6.3-2.9c-2-1.8-0.4-6.3,1-7.2c1.4-1,2.3,0.9,3.5,2.2
				c0.4,0.4,0.8,0.5,1.1,0.4c-0.3,0.6-0.6,1.1-0.9,1c-1.6-0.2-2.8-2.8-3.9-0.7c-1.1,2.1-0.4,4.9,2.8,5.6
				C323.9,107.8,323.4,108.9,322.7,109.7"/>
		</g>
		<g>
			<path class="st5" d="M313,97.4c0.8-1.5,2.5-2.5,4.3-2.8c0.9-0.1,1.8-0.1,2.7,0.2c0.1,0,0.2,0.1,0.3,0.1c0.1,0,0.2,0.1,0.3,0.1
				c0.2,0.1,0.5,0.2,0.7,0.4c0.4,0.3,0.7,0.8,0.9,1.2c0.2,0.4,0.3,0.9,0.4,1.4c0.1,0.5,0,0.9,0,1.4c0,0.4-0.1,0.9-0.3,1.3
				c-0.1,0.2-0.2,0.4-0.3,0.7c-0.1,0.2-0.2,0.4-0.5,0.7c-0.1,0.1-0.2,0.2-0.4,0.3c-0.1,0-0.2,0.1-0.3,0.1c-0.1,0-0.1,0-0.2,0l-0.1,0
				c0,0,0,0,0,0l-0.1,0c-0.3,0-0.5-0.1-0.7-0.2c-0.4-0.2-0.8-0.5-1.1-0.7c-0.2-0.1-0.3-0.2-0.5-0.3c-0.1-0.1-0.3-0.2-0.4-0.2
				c0,0-0.1,0-0.1,0c0,0,0,0,0,0c0,0-0.1,0.1-0.2,0.2c-0.1,0.1-0.2,0.2-0.2,0.4c-0.1,0.2-0.1,0.3-0.2,0.5c-0.1,0.3-0.2,0.7-0.2,1
				c0,0.7,0.2,1.3,0.6,1.8c0.4,0.5,1,0.9,1.6,1.1l0.3,0.1l0.3,0.1c0.2,0,0.4,0.1,0.6,0.1c0.4,0.1,0.8,0.2,1.2,0.4
				c0.4,0.1,0.8,0.3,1.2,0.5c0.2,0.1,0.4,0.2,0.6,0.4c0.2,0.2,0.4,0.4,0.6,0.8c0.1,0.2,0.1,0.4,0.1,0.6c0,0.2,0,0.4-0.1,0.5
				c-0.1,0.3-0.3,0.5-0.4,0.7c-0.3,0.4-0.6,0.7-0.9,1c-0.7,0.6-1.5,1.1-2.3,1.3c-0.4,0.1-0.9,0.2-1.3,0.3c-0.2,0-0.4,0.1-0.7,0.1
				c-0.1,0-0.2,0-0.3,0l-0.2,0c-0.1,0-0.1,0-0.2,0l0,0l0.7-0.5l0,0.1l0,0l0,0.1c0,0,0,0.1,0,0.1c0,0.1-0.1,0.1-0.1,0.2
				c-0.1,0.1-0.1,0.2-0.2,0.3c-0.1,0.2-0.3,0.3-0.5,0.4c-0.3,0.2-0.7,0.3-1,0.4c-0.2,0-0.3,0.1-0.5,0.1c-0.2,0-0.3,0-0.5,0
				c-0.3,0-0.7,0-1-0.1c-0.6-0.1-1.2-0.3-1.7-0.6c-0.5-0.3-1-0.6-1.5-1c-0.9-0.7-1.7-1.6-2.3-2.7c-0.6-1-0.8-2.3-0.6-3.5
				c0-0.2,0.2-0.3,0.4-0.3c0.2,0,0.3,0.2,0.3,0.3l0,0c0.1,1,0.5,2,1,2.8c0.5,0.8,1.3,1.6,2.1,2.2c0.4,0.3,0.8,0.6,1.3,0.8
				c0.4,0.2,0.9,0.4,1.4,0.5c0.2,0,0.5,0.1,0.7,0.1c0.1,0,0.2,0,0.3,0c0.1,0,0.2,0,0.3,0c0.2,0,0.4-0.1,0.5-0.2
				c0.1,0,0.1-0.1,0.2-0.1c0,0,0,0,0.1-0.1c0,0,0,0,0,0c0,0,0,0,0,0c0,0,0,0,0,0l0,0l0,0l0.7-0.5v0l0.1,0l0.1,0c0.1,0,0.2,0,0.3,0
				c0.2,0,0.4,0,0.5-0.1c0.4-0.1,0.7-0.1,1.1-0.2c0.7-0.2,1.3-0.6,1.8-1.1c0.3-0.2,0.5-0.5,0.7-0.8c0.1-0.1,0.2-0.3,0.2-0.4
				c0-0.1,0-0.1,0-0.1c0,0-0.1-0.1-0.2-0.2c-0.1-0.1-0.2-0.2-0.4-0.3c-0.3-0.2-0.6-0.3-1-0.4c-0.4-0.1-0.7-0.2-1.1-0.3
				c-0.2,0-0.4-0.1-0.6-0.1l-0.3-0.1c-0.1,0-0.2-0.1-0.3-0.1c-0.9-0.3-1.7-0.8-2.3-1.6c-0.6-0.8-0.9-1.7-0.9-2.7
				c0-0.5,0.1-0.9,0.2-1.4c0.1-0.2,0.2-0.4,0.3-0.6c0.1-0.2,0.2-0.4,0.4-0.6c0.2-0.2,0.4-0.4,0.7-0.6c0.2-0.1,0.4-0.1,0.6-0.1
				c0.2,0,0.4,0,0.5,0.1c0.3,0.1,0.5,0.2,0.7,0.4c0.2,0.1,0.4,0.3,0.5,0.4c0.3,0.2,0.6,0.5,0.9,0.6c0.1,0.1,0.3,0.1,0.4,0.1l0,0
				c0,0,0,0,0,0l0,0c0,0,0,0-0.1,0c0,0-0.1,0-0.1,0c0,0,0,0,0,0c0.1-0.1,0.1-0.2,0.2-0.3c0.1-0.1,0.1-0.3,0.2-0.5
				c0.1-0.3,0.2-0.7,0.2-1c0.1-0.7,0-1.4-0.3-2c-0.1-0.3-0.3-0.5-0.5-0.7c-0.1-0.1-0.2-0.2-0.4-0.2c-0.1,0-0.1-0.1-0.2-0.1
				c-0.1,0-0.2-0.1-0.2-0.1c-0.7-0.2-1.4-0.3-2-0.2c-0.7,0.1-1.4,0.3-2,0.7c-0.3,0.2-0.6,0.4-1,0.6c-0.3,0.2-0.6,0.4-1,0.6l0,0
				c-0.2,0.1-0.4,0.1-0.5-0.1C312.9,97.7,312.9,97.5,313,97.4"/>
		</g>
		<g>
			<path class="st5" d="M310.4,107.1c0.1,0.1,0.2,0.3,0.3,0.5c0.1,0.2,0.2,0.3,0.3,0.5c0.2,0.3,0.5,0.6,0.7,0.8
				c0.5,0.5,1.1,1,1.7,1.3c0.2,0.1,0.3,0.2,0.5,0.3c0.2,0.1,0.3,0.2,0.5,0.2l0.5,0.2c0.2,0.1,0.4,0.1,0.5,0.1l0.3,0.1
				c0.1,0,0.2,0,0.3,0.1l0.5,0.1c0,0,0.1,0,0.1,0l0.1,0l0.3,0l0.5,0l0.1,0c0.4,0,0.6,0.4,0.6,0.7c0,0.4-0.4,0.6-0.7,0.6c0,0,0,0,0,0
				l-0.6-0.1l-0.3,0l-0.2,0c-0.1,0-0.1,0-0.2,0l-0.6-0.2c-0.1,0-0.2,0-0.3-0.1l-0.3-0.1c-0.2-0.1-0.4-0.1-0.6-0.2l-0.6-0.3
				c-0.2-0.1-0.4-0.2-0.5-0.3c-0.2-0.1-0.4-0.2-0.5-0.3c-0.7-0.5-1.3-1-1.8-1.6c-0.3-0.3-0.5-0.6-0.7-1c-0.1-0.2-0.2-0.3-0.3-0.5
				c-0.1-0.2-0.2-0.4-0.3-0.6c-0.1-0.2,0-0.4,0.2-0.4C310.2,106.9,310.3,106.9,310.4,107.1L310.4,107.1z"/>
		</g>
		<g>
			<path class="st6" d="M360.1,100.6c-0.2,1.4-0.7,2.7-1.5,3.9c-1.6,2.6-6.1,5.1-10.7,4.9c0-0.7,0-1.5-0.2-2.3
				c-0.7-4.6-3.6-9.8-3.6-9.8s3.8-2.1,6.6-4.5l5.2-4.8C359.5,93.4,360.6,97.3,360.1,100.6"/>
		</g>
		<g>
			<path class="st17" d="M360.1,100.6c-0.2,1.4-0.7,2.7-1.5,3.9c-1.6,2.6-6.1,5.1-10.7,4.9c0-0.7,0-1.5-0.2-2.3
				C350.8,106.7,356.2,105.2,360.1,100.6"/>
		</g>
		<g>
			<path class="st5" d="M351,93.1c-0.4,0.5-0.9,1-1.4,1.5c-0.5,0.4-1.1,0.8-1.6,1.2c-0.6,0.4-1.1,0.8-1.7,1.1
				c-0.6,0.4-1.1,0.7-1.7,1.1l0.3-1c0.3,0.5,0.5,1,0.7,1.5c0.2,0.5,0.5,1,0.7,1.5c0.4,1,0.8,2,1.2,3c0.4,1,0.7,2.1,0.9,3.2
				c0.2,1.1,0.4,2.2,0.3,3.4v0l-0.6-0.7c2.4,0.1,4.8-0.5,6.8-1.7c1-0.6,2-1.3,2.7-2.2c0.2-0.2,0.4-0.4,0.5-0.7
				c0.1-0.2,0.3-0.5,0.4-0.8c0.3-0.5,0.5-1.1,0.7-1.6c0.4-1.1,0.5-2.3,0.4-3.5c-0.1-1.2-0.4-2.3-0.7-3.5c-0.8-2.3-2-4.4-3.4-6.5l0,0
				c-0.2-0.3-0.1-0.7,0.2-0.9c0.3-0.2,0.7-0.1,0.9,0.2l0,0c1.4,2.1,2.7,4.3,3.5,6.8c0.4,1.2,0.7,2.5,0.8,3.8
				c0.1,1.3-0.1,2.7-0.5,3.9c-0.2,0.6-0.5,1.2-0.8,1.8c-0.2,0.3-0.3,0.6-0.5,0.9c-0.2,0.3-0.4,0.6-0.6,0.8c-0.9,1-2,1.8-3.1,2.5
				c-1.1,0.6-2.4,1.1-3.6,1.4c-1.3,0.3-2.6,0.5-3.9,0.4l-0.7,0l0-0.7v0c0-1-0.1-2-0.4-3c-0.1-0.5-0.2-1-0.4-1.5
				c-0.1-0.5-0.3-1-0.5-1.5c-0.3-1-0.7-2-1.1-2.9c-0.4-1-0.9-1.9-1.3-2.8l-0.3-0.6l0.6-0.3c0.6-0.3,1.1-0.6,1.7-1
				c0.6-0.3,1.1-0.7,1.7-1c0.6-0.4,1.1-0.7,1.7-1.1c0.6-0.3,1.1-0.7,1.7-1l0,0c0.2-0.1,0.4,0,0.5,0.2C351.1,92.9,351.1,93,351,93.1"
				/>
		</g>
		<g>
			<path class="st6" d="M352.4,106.3c-0.1,3.7-4.2,6.8-6.9,6.7c-1.8-0.1-2-1-2-1s-3.2,0.3-5.2-2.3c-0.6-0.8-1.2-1.9,3.3-2.9
				c3.2-0.7,3.7-3.4,2.6-5.2c-1.4-2.3-6.7-1.1-6.7-3.7c0-0.3,0.1-0.6,0.3-0.7c0.5-0.4,1.5-0.6,3.1-1.4c4.2-2.2,6.9,1.9,6.9,1.9
				l4.5,8.3C352.4,106.1,352.4,106.2,352.4,106.3"/>
		</g>
		<g class="st9">
			<g>
				<g>
					<path class="st1" d="M348,98c0,0-3-2.7-7.2-0.9c-1.6,0.7-2.3,0.3-2.9,0.6c-0.1-0.2-0.3,0.4-0.3,0.1c0-0.3,0.1-0.6,0.3-0.7
						c0.5-0.4,1.5-0.6,3.1-1.4c4.2-2.2,6.9,1.9,6.9,1.9L348,98z"/>
				</g>
			</g>
		</g>
		<g>
			<path class="st17" d="M352.4,106.3c-0.1,3.7-4.2,6.8-6.9,6.7c-1.8-0.1-2-1-2-1s-3.2,0.3-5.2-2.3c-0.6-0.8-1.2-1.9,3.3-2.9
				c3.2-0.7,3.7-3.4,2.6-5.2c-1.4-2.3-6.7-1.1-6.7-3.7c0-0.3,0.1-0.6,0.3-0.7c0.2,0.3,0.5,0.5,0.9,0.7c1.8,0.8,6.9,0,7.4,2.3
				c0.5,2.3,1.4,5.8-2.6,7.3c-1.6,0.6-4.6,0.2-5,0.9c-0.2,0.3,0.8,1.6,1.6,1.9c5.5,2.3,10.4-3,10.6-2.9c0.3,0.1-0.7,1.3-0.9,1.7
				C349.3,110.1,351.5,108.1,352.4,106.3"/>
		</g>
		<g>
			<path class="st5" d="M352.7,106c0.1,0.3,0.1,0.6,0.1,0.9l0,0.2c0,0.1,0,0.2,0,0.2c0,0.2,0,0.3-0.1,0.5c-0.1,0.6-0.4,1.2-0.6,1.7
				c-0.6,1.1-1.4,1.9-2.3,2.7c-0.9,0.7-2,1.3-3.2,1.5c-0.3,0.1-0.6,0.1-1,0.1c-0.2,0-0.3,0-0.5,0c-0.2,0-0.3,0-0.5-0.1
				c-0.3-0.1-0.7-0.2-1-0.4c-0.2-0.1-0.3-0.2-0.5-0.4c-0.1-0.1-0.1-0.2-0.2-0.3c0,0-0.1-0.1-0.1-0.2c0,0,0-0.1,0-0.1l0-0.1l0,0
				l0-0.1l0.7,0.5c-0.1,0-0.2,0-0.4,0c-0.1,0-0.2,0-0.3,0c-0.2,0-0.4,0-0.7-0.1c-0.4-0.1-0.9-0.2-1.3-0.3c-0.8-0.3-1.6-0.7-2.3-1.3
				l-0.2-0.2c-0.1-0.1-0.2-0.2-0.2-0.2c-0.1-0.2-0.3-0.3-0.4-0.5c-0.1-0.2-0.3-0.4-0.4-0.7c-0.1-0.1-0.1-0.3-0.1-0.5
				c0-0.2,0-0.4,0.1-0.6c0.1-0.3,0.4-0.6,0.6-0.7c0.2-0.2,0.4-0.3,0.6-0.4c0.4-0.2,0.8-0.4,1.2-0.5c0.4-0.1,0.8-0.2,1.2-0.3
				c0.2-0.1,0.4-0.1,0.6-0.1c0.2-0.1,0.3-0.1,0.5-0.1c0.7-0.2,1.2-0.6,1.6-1.1c0.2-0.3,0.3-0.6,0.4-0.9c0.1-0.3,0.1-0.6,0-1
				c0-0.3-0.1-0.6-0.3-0.9l-0.1-0.1l0-0.1c0,0,0,0,0,0c0-0.1-0.1-0.1-0.1-0.2c-0.1-0.1-0.2-0.2-0.3-0.3c-0.5-0.4-1.3-0.6-2-0.7
				l-1.2-0.2c-0.4-0.1-0.8-0.2-1.2-0.3c-0.4-0.2-0.9-0.3-1.3-0.8c-0.2-0.2-0.4-0.5-0.5-0.8c-0.1-0.1-0.1-0.3-0.1-0.4
				c0-0.1,0-0.3,0-0.4c0-0.1,0-0.3,0.1-0.5c0-0.2,0.1-0.3,0.2-0.5c0.2-0.3,0.5-0.4,0.7-0.5c0.4-0.2,0.8-0.3,1.2-0.5
				c0.4-0.1,0.7-0.3,1.1-0.5c0.1,0,0.2-0.1,0.3-0.1l0.1-0.1l0.1-0.1c0.2-0.1,0.4-0.2,0.6-0.3c0.8-0.3,1.8-0.5,2.7-0.3
				c0.9,0.1,1.8,0.5,2.5,1.1c0.4,0.3,0.7,0.6,0.9,0.9c0.3,0.3,0.5,0.7,0.7,1.1c0.1,0.2,0,0.4-0.1,0.5c-0.1,0.1-0.3,0-0.4-0.1l0,0
				c-1.1-1.1-2.4-1.9-3.8-2c-0.7-0.1-1.4,0-2,0.3c-0.2,0.1-0.3,0.1-0.5,0.2c0,0-0.1,0-0.1,0.1l-0.1,0.1c-0.1,0-0.2,0.1-0.3,0.1
				c-0.4,0.2-0.8,0.3-1.2,0.5c-0.4,0.1-0.8,0.3-1.1,0.4c-0.1,0.1-0.2,0.1-0.2,0.2c0,0,0,0,0,0c0,0,0,0.1,0,0.1c0,0.1,0,0.1,0,0.2
				c0,0.1,0,0.1,0,0.2c0,0.1,0.1,0.2,0.2,0.3c0.2,0.2,0.5,0.3,0.8,0.4c0.7,0.2,1.5,0.4,2.3,0.5c0.4,0.1,0.8,0.2,1.2,0.3
				c0.4,0.1,0.8,0.3,1.3,0.6c0.2,0.1,0.4,0.3,0.6,0.5c0.1,0.1,0.2,0.2,0.2,0.3l0.1,0.1l0,0.1l0.1,0.2c0.2,0.4,0.4,0.9,0.4,1.4
				c0.1,0.5,0.1,1-0.1,1.4c-0.1,0.5-0.3,0.9-0.6,1.3c-0.3,0.4-0.6,0.8-1,1c-0.4,0.3-0.8,0.5-1.2,0.6c-0.2,0.1-0.4,0.1-0.6,0.2
				c-0.2,0.1-0.4,0.1-0.6,0.1c-0.4,0.1-0.8,0.2-1.1,0.3c-0.4,0.1-0.7,0.3-1,0.4c-0.1,0.1-0.3,0.2-0.4,0.3c-0.1,0.1-0.2,0.2-0.2,0.2
				c0,0,0,0,0,0.1c0,0.1,0.1,0.2,0.2,0.4c0.1,0.1,0.2,0.3,0.3,0.4c0.1,0.1,0.1,0.1,0.2,0.2l0.2,0.2c0.5,0.5,1.2,0.8,1.8,1.1
				c0.3,0.1,0.7,0.2,1.1,0.2c0.2,0,0.4,0,0.5,0.1c0.1,0,0.2,0,0.3,0c0.1,0,0.2,0,0.2,0l0.7,0.5l0,0c0,0,0,0,0,0c0,0,0,0,0,0
				c0,0,0,0,0,0.1c0,0,0.1,0.1,0.2,0.1c0.1,0.1,0.3,0.2,0.5,0.2c0.1,0,0.2,0,0.3,0c0.1,0,0.2,0,0.3,0c0.2,0,0.4,0,0.7-0.1
				c0.5-0.1,0.9-0.3,1.4-0.5c0.4-0.2,0.9-0.5,1.3-0.8c0.8-0.6,1.5-1.3,2-2.2c0.3-0.4,0.5-0.9,0.6-1.3c0-0.1,0.1-0.2,0.1-0.3
				c0-0.1,0.1-0.2,0.1-0.4c0.1-0.2,0.1-0.5,0.2-0.7l0,0c0.1-0.2,0.2-0.3,0.4-0.2C352.6,105.8,352.7,105.9,352.7,106"/>
		</g>
		<g>
			<path class="st5" d="M351.3,107.4c-0.1,0.2-0.2,0.4-0.3,0.6c-0.1,0.2-0.2,0.4-0.3,0.5c-0.2,0.3-0.5,0.7-0.7,1
				c-0.5,0.6-1.1,1.2-1.8,1.6c-0.2,0.1-0.3,0.2-0.5,0.3c-0.2,0.1-0.4,0.2-0.5,0.3l-0.6,0.3c-0.2,0.1-0.4,0.1-0.6,0.2l-0.3,0.1
				c-0.1,0-0.2,0.1-0.3,0.1l-0.6,0.2c-0.1,0-0.1,0-0.2,0l-0.2,0l-0.3,0l-0.6,0.1c-0.4,0.1-0.7-0.2-0.8-0.6c-0.1-0.4,0.2-0.7,0.6-0.8
				c0,0,0,0,0,0l0.1,0l0.5,0l0.3,0l0.1,0c0,0,0.1,0,0.1,0l0.5-0.1c0.1,0,0.2,0,0.3-0.1l0.3-0.1c0.2,0,0.4-0.1,0.5-0.1l0.5-0.2
				c0.2-0.1,0.3-0.1,0.5-0.2c0.2-0.1,0.3-0.2,0.5-0.3c0.6-0.4,1.2-0.8,1.7-1.3c0.3-0.3,0.5-0.5,0.7-0.8c0.1-0.2,0.2-0.3,0.3-0.5
				c0.1-0.2,0.2-0.3,0.3-0.5l0,0c0.1-0.2,0.3-0.2,0.5-0.2C351.3,107,351.4,107.2,351.3,107.4"/>
		</g>
		<g>
			<path class="st13" d="M351,77l-8,3.7l-1.1-2.4l8-3.7c6.2-2.9,10.6-8.6,11.8-15.4l0.3-1.7l2.6,0.4l-0.3,1.7
				C363,67.3,358,73.7,351,77"/>
		</g>
		<g>
			<path class="st24" d="M363.9,58.4l-0.2,1.1c-0.4,2.1-1,4.1-1.9,6c-0.5,0-1.1-0.1-1.6-0.1c1-1.9,1.7-4,2-6.1l0.2-1.1L363.9,58.4z"
				/>
		</g>
		<g>
			<path class="st5" d="M342.6,81.6L341,78l8.6-4c6-2.8,10.3-8.3,11.4-14.9l0.4-2.3l3.9,0.7l-0.4,2.3c-1.3,7.8-6.4,14.5-13.7,17.8
				L342.6,81.6z M342.8,78.6l0.5,1.2l7.4-3.4c6.8-3.1,11.6-9.4,12.9-16.8l0.2-1l-1.3-0.2l-0.2,1c-1.2,7-5.7,12.9-12.2,15.9
				L342.8,78.6z"/>
		</g>
		<g>
			<path class="st28" d="M343.9,81.1l-2.6,1.2c-1,0.5-2.2,0-2.6-1l-0.1-0.2c-0.5-1,0-2.2,1-2.6l2.6-1.2c1-0.5,2.2,0,2.6,1l0.1,0.2
				C345.3,79.5,344.9,80.6,343.9,81.1"/>
		</g>
		<g class="st9">
			<g>
				<g>
					<path class="st1" d="M344.7,78.2l0.2,0.4c0,0.1,0.1,0.1,0.1,0.2c-0.5-0.8-1.5-1.1-2.3-0.7l-2.9,1.3c-0.9,0.4-1.3,1.4-1,2.3
						c0-0.1-0.1-0.1-0.1-0.2l-0.2-0.4c-0.4-0.9,0-2,0.9-2.4l2.9-1.3C343.2,76.8,344.3,77.2,344.7,78.2"/>
				</g>
			</g>
		</g>
		<g>
			<path class="st29" d="M344.7,78.2l0.2,0.4c0.4,0.9,0,2-0.9,2.4l-2.9,1.3c-0.9,0.4-2,0-2.4-0.9l-0.2-0.4c-0.1-0.2-0.1-0.3-0.2-0.5
				c0.5,0.6,1.4,0.8,2.1,0.4l2.9-1.3c0.8-0.3,1.2-1.1,1.1-1.9C344.5,77.8,344.6,78,344.7,78.2"/>
		</g>
		<g>
			<path class="st5" d="M340.4,83.1c-0.9,0-1.8-0.5-2.2-1.4l-0.2-0.4c-0.6-1.2,0-2.7,1.2-3.3l2.8-1.3c1.2-0.6,2.7,0,3.3,1.2l0.2,0.4
				c0.6,1.2,0,2.7-1.2,3.3h0l-2.8,1.3C341.1,83,340.7,83.1,340.4,83.1z M343,77.7c-0.2,0-0.4,0-0.5,0.1l-2.8,1.3
				c-0.6,0.3-0.9,1.1-0.6,1.7l0.2,0.4c0.3,0.6,1.1,0.9,1.7,0.6l2.8-1.3c0.6-0.3,0.9-1.1,0.6-1.7l-0.2-0.4
				C344,78,343.5,77.7,343,77.7z"/>
		</g>
		<g>
			<path class="st12" d="M367.5,56.3c-1,0.1-1.5,0.2-2.5,0.3c-0.6,0.1-1.2-0.4-1.3-1c-1-6.2-2.7-12.1-5.1-17.9
				c-0.3-0.6,0-1.3,0.6-1.6c0.9-0.4,1.4-0.6,2.3-1c2-0.9,4.2,0.3,5,2.3c1.8,4.6,3.1,9.3,4.1,14.2C370.9,53.8,369.7,56,367.5,56.3"/>
		</g>
		<g>
			<path class="st14" d="M365,56.7c1-0.1,1.5-0.2,2.5-0.3c2.2-0.3,3.4-2.5,3-4.6c-0.4-2-0.9-4-1.4-6c-0.2,1.6-1.3,3.1-3.1,3.3
				c-1,0.1-1.5,0.2-2.5,0.3c-0.6,0.1-1.2-0.4-1.3-1c-0.7-4.2-1.7-8.2-3-12.1c0,0-0.1,0-0.1,0c-0.6,0.3-0.8,1-0.6,1.6
				c2.4,5.8,4.1,11.7,5.1,17.9C363.8,56.3,364.4,56.8,365,56.7"/>
		</g>
		<g>
			<path class="st5" d="M364.9,57.3c-0.9,0-1.7-0.7-1.8-1.6c-1-6.1-2.7-11.9-5.1-17.7c-0.4-0.9,0-2,0.9-2.4l2.3-1
				c1.1-0.5,2.2-0.5,3.3,0c1.2,0.5,2.1,1.5,2.6,2.7c1.8,4.7,3.1,9.4,4.1,14.3c0.2,1.3,0,2.7-0.8,3.7c-0.7,0.9-1.7,1.6-2.8,1.7l0,0
				l-2.5,0.3C365,57.3,364.9,57.3,364.9,57.3z M367.5,56.3L367.5,56.3L367.5,56.3z M362.8,35.6c-0.3,0-0.7,0.1-1.1,0.2l-2.3,1
				c-0.2,0.1-0.4,0.4-0.2,0.7c2.5,5.9,4.1,11.8,5.2,18c0,0.3,0.3,0.5,0.6,0.5l2.5-0.3c1-0.2,1.6-0.7,1.9-1.2
				c0.5-0.7,0.7-1.7,0.6-2.7c-1-4.8-2.3-9.5-4.1-14.1c-0.3-0.9-1-1.6-1.9-1.9C363.7,35.7,363.3,35.6,362.8,35.6z"/>
		</g>
		<g>
			<path class="st30" d="M362.6,58.7c1.1-0.2,1.7-0.2,2.8-0.4c2.5-0.4,3.9-2.8,3.4-5.2c-0.4-1.9-0.8-3.8-1.3-5.6
				c-0.2-0.7-0.4-1.4-0.6-2c-0.5-1.9-1.1-3.7-1.7-5.5c-0.3-0.9-0.7-1.9-1-2.8c-0.9-2.2-3.4-3.6-5.7-2.6c-1,0.5-1.6,0.7-2.6,1.2
				c-0.7,0.3-0.9,1.1-0.7,1.8c0.6,1.5,1.2,3.1,1.8,4.6c0.7,1.9,1.3,3.7,1.8,5.6c0.2,0.6,0.4,1.3,0.5,1.9c0.7,2.6,1.2,5.2,1.7,7.9
				C361.2,58.3,361.9,58.8,362.6,58.7"/>
		</g>
		<g class="st9">
			<g>
				<g>
					<path class="st1" d="M358.9,47.8c2.1-0.2,5.6-0.7,8.1-2.2c-0.5-1.9-1.1-3.7-1.7-5.5c-2.2,0-5.3,0.5-8.1,2.1
						C357.8,44,358.4,45.9,358.9,47.8"/>
				</g>
			</g>
		</g>
		<g class="st9">
			<g>
				<g>
					<path class="st1" d="M356,39.2c-0.2-0.6,0.1-1.3,0.7-1.6c1-0.5,1.6-0.7,2.6-1.2c2.1-0.9,4.4,0.1,5.4,2
						c-0.2-0.4-0.3-0.9-0.5-1.3c-0.9-2.2-3.4-3.6-5.7-2.6c-1,0.5-1.6,0.7-2.6,1.2c-0.7,0.3-0.9,1.1-0.7,1.8
						C355.5,38.1,355.8,38.6,356,39.2"/>
				</g>
			</g>
		</g>
		<g class="st15">
			<g>
				<g>
					<path class="st1" d="M361.7,58.5c-0.4-2.4-0.9-4.7-1.5-7c-1-4-2.3-7.9-3.9-11.8c1.3,3.3,2.3,6.6,3.2,9.9
						c0.7,2.6,1.2,5.2,1.7,7.9C361.2,58,361.4,58.3,361.7,58.5"/>
				</g>
			</g>
		</g>
		<g class="st15">
			<g>
				<g>
					<path class="st1" d="M356,39.4c0.1,0.1,0.1,0.3,0.2,0.4c-0.1-0.2-0.1-0.4-0.2-0.6C356,39.2,356,39.3,356,39.4"/>
				</g>
			</g>
		</g>
		<g>
			<path class="st10" d="M362.6,58.7c1.1-0.2,1.7-0.2,2.8-0.4c2.5-0.4,3.9-2.8,3.4-5.2c-0.4-1.9-0.8-3.8-1.3-5.6
				c0,0.2-0.2,2.9-3.6,3.8c-2.6,0.7-3.7-0.2-4.5-1.6c0.7,2.6,1.2,5.2,1.7,7.9C361.2,58.3,361.9,58.8,362.6,58.7"/>
		</g>
		<g>
			<path class="st5" d="M362.4,59.4c-1,0-1.8-0.7-2-1.7c-1.2-6.9-3-13.4-5.7-19.9c-0.4-1,0-2.2,1-2.6l2.6-1.2c1.2-0.5,2.5-0.5,3.7,0
				c1.3,0.5,2.4,1.6,2.9,3c2,5.3,3.5,10.6,4.6,16.1c0.3,1.4,0,2.9-0.9,4.1c-0.7,1-1.8,1.7-3.1,1.9l-0.8,0.1l-2,0.3
				C362.6,59.4,362.5,59.4,362.4,59.4z M365.4,58.4L365.4,58.4L365.4,58.4z M360.1,34.9c-0.4,0-0.8,0.1-1.3,0.3l-2.6,1.2
				c-0.3,0.1-0.5,0.5-0.3,0.9c2.8,6.6,4.7,13.2,5.8,20.2c0.1,0.4,0.4,0.6,0.7,0.6l2.8-0.4c1.1-0.2,1.8-0.8,2.2-1.4
				c0.6-0.9,0.8-2,0.6-3.1c-1.1-5.5-2.6-10.6-4.6-15.9c-0.4-1-1.2-1.8-2.2-2.2C361.1,35,360.7,34.9,360.1,34.9z"/>
		</g>
		<g>
			<path class="st12" d="M293.1,55.3c1,0.2,1.5,0.3,2.5,0.5c0.6,0.1,1.2-0.3,1.4-1c1.3-6.1,3.3-11.9,6-17.6c0.3-0.6,0.1-1.3-0.5-1.6
				c-0.9-0.5-1.4-0.7-2.3-1.2c-2-1-4.3,0.1-5.1,2.1c-2,4.6-3.5,9.2-4.7,14C289.8,52.6,290.9,54.8,293.1,55.3"/>
		</g>
		<g>
			<path class="st14" d="M295.6,55.7c-1-0.2-1.5-0.3-2.5-0.5c-2.2-0.4-3.3-2.7-2.8-4.8c0.5-2,1.1-4,1.7-6c0.1,1.6,1.2,3.1,2.9,3.5
				c1,0.2,1.5,0.3,2.5,0.5c0.6,0.1,1.2-0.3,1.4-1c0.9-4.1,2.1-8.1,3.6-12c0,0,0.1,0,0.1,0c0.6,0.3,0.8,1,0.5,1.6
				c-2.7,5.7-4.6,11.5-6,17.6C296.8,55.4,296.2,55.9,295.6,55.7"/>
		</g>
		<g>
			<path class="st5" d="M295.8,56.4c-0.1,0-0.2,0-0.3,0l-2.5-0.5c-1.1-0.2-2.1-0.9-2.7-1.9c-0.7-1.1-0.9-2.4-0.6-3.7
				c1.2-4.9,2.8-9.5,4.8-14.1c0.5-1.2,1.5-2.2,2.8-2.6c1.1-0.4,2.3-0.3,3.3,0.2l2.3,1.2c0.9,0.5,1.3,1.6,0.8,2.5
				c-2.7,5.6-4.6,11.3-5.9,17.4C297.4,55.8,296.6,56.4,295.8,56.4z M293.2,54.6l2.5,0.5c0.3,0,0.5-0.1,0.6-0.4
				c1.3-6.2,3.3-12,6-17.8c0.1-0.3,0-0.6-0.2-0.7l-2.3-1.2c-0.9-0.4-1.7-0.3-2.2-0.1c-0.9,0.3-1.6,1-2,1.9c-2,4.5-3.5,9.1-4.7,13.9
				c-0.2,0.9-0.1,1.9,0.4,2.7C291.6,53.8,292.2,54.4,293.2,54.6z"/>
		</g>
		<g>
			<path class="st30" d="M297.9,57.9c-1.1-0.2-1.7-0.3-2.8-0.5c-2.5-0.5-3.7-3-3.2-5.4c0.5-1.9,1-3.7,1.6-5.5c0.2-0.7,0.4-1.3,0.6-2
				c0.6-1.8,1.3-3.6,2-5.4c0.4-0.9,0.7-1.8,1.1-2.8c1-2.2,3.5-3.4,5.8-2.3c1,0.5,1.5,0.8,2.5,1.3c0.6,0.3,0.9,1.1,0.6,1.8
				c-0.7,1.5-1.4,3-2,4.5c-0.7,1.8-1.4,3.7-2.1,5.5c-0.2,0.6-0.4,1.3-0.6,1.9c-0.8,2.6-1.5,5.2-2,7.8
				C299.3,57.6,298.6,58.1,297.9,57.9"/>
		</g>
		<g class="st9">
			<g>
				<g>
					<path class="st1" d="M302.1,47.1c-2.1-0.3-5.5-1-8-2.6c0.6-1.8,1.3-3.6,2-5.4c2.2,0.1,5.2,0.7,8,2.5
						C303.4,43.4,302.7,45.3,302.1,47.1"/>
				</g>
			</g>
		</g>
		<g class="st9">
			<g>
				<g>
					<path class="st1" d="M305.4,38.7c0.2-0.6-0.1-1.3-0.6-1.6c-1-0.5-1.5-0.8-2.5-1.3c-2.1-1-4.4-0.1-5.5,1.8
						c0.2-0.4,0.3-0.8,0.5-1.3c1-2.2,3.5-3.4,5.8-2.3c1,0.5,1.5,0.8,2.5,1.3c0.6,0.3,0.9,1.1,0.6,1.8
						C305.9,37.6,305.6,38.1,305.4,38.7"/>
				</g>
			</g>
		</g>
		<g class="st15">
			<g>
				<g>
					<path class="st1" d="M298.8,57.7c0.5-2.4,1.1-4.7,1.8-6.9c1.2-3.9,2.7-7.8,4.5-11.6c-1.4,3.2-2.6,6.5-3.7,9.8
						c-0.8,2.6-1.5,5.2-2,7.8C299.3,57.2,299.1,57.6,298.8,57.7"/>
				</g>
			</g>
		</g>
		<g class="st15">
			<g>
				<g>
					<path class="st1" d="M305.3,38.9c-0.1,0.1-0.1,0.3-0.2,0.4c0.1-0.2,0.2-0.4,0.3-0.6C305.4,38.7,305.3,38.8,305.3,38.9"/>
				</g>
			</g>
		</g>
		<g>
			<path class="st10" d="M297.9,57.9c-1.1-0.2-1.7-0.3-2.8-0.5c-2.5-0.5-3.7-3-3.2-5.4c0.5-1.9,1-3.7,1.6-5.5c0,0.2,0.1,2.9,3.4,3.9
				c2.5,0.8,3.7-0.1,4.6-1.4c-0.8,2.6-1.5,5.2-2,7.8C299.3,57.6,298.6,58.1,297.9,57.9"/>
		</g>
		<g>
			<path class="st5" d="M298.1,58.6c-0.1,0-0.2,0-0.3,0l-2.8-0.5c-1.3-0.3-2.3-1-3-2.1c-0.8-1.2-1-2.7-0.7-4.1
				c1.4-5.5,3.1-10.7,5.4-15.9c0.6-1.3,1.7-2.4,3-2.9c1.2-0.4,2.5-0.4,3.6,0.2l2.5,1.3c1,0.5,1.3,1.7,0.9,2.7
				c-3,6.3-5.2,12.8-6.7,19.6C299.9,57.9,299,58.6,298.1,58.6z M295.2,56.8l2.8,0.5c0.3,0.1,0.7-0.2,0.8-0.5
				c1.5-7,3.7-13.5,6.8-19.9c0.2-0.3,0-0.7-0.3-0.9l-2.5-1.3c-1-0.5-2-0.4-2.6-0.1c-1,0.4-1.8,1.1-2.3,2.1
				c-2.2,5.1-3.9,10.2-5.3,15.6c-0.2,1.1-0.1,2.2,0.5,3.1C293.4,55.8,294.1,56.5,295.2,56.8z"/>
		</g>
		<g class="st4">
			<path class="st5" d="M360.1,120.3c0,0.4,0,0.9,0,1.3l0.4,5.9c0.5,2.7,3.4,4.5,6.9,3c2.1-0.8,4-3.8,5.4-7.1c0,0-3.1,3.8-7.4,3
				C361.1,125.6,360.1,120.4,360.1,120.3"/>
		</g>
		<g class="st9">
			<g>
				<g>
					<path class="st1" d="M360.1,120.3L360.1,120.3c0,0.3,0,0.7,0,1c0.1-3.9,1-8.2,2.6-8.7c1.2-0.4,2.5,2.1,2.5,2.1s2.9-4.3,3.7-3.3
						c0.8,1,0.7,3.9,1.3,4.2c0.3,0.1,2.6-1.2,3.8-0.1c0.3,0.3,0.6,0.6,0.7,1.2c0.2-1.8,0-3.1-0.7-3.5c-1.4-0.7-3.6,1.8-3.6,1.8
						s0.3-5.1-1.4-5.3c-1.7-0.3-3.7,4.4-3.7,4.4s-1.1-4-2.8-3.4C360.7,111.3,360.1,116,360.1,120.3"/>
				</g>
			</g>
		</g>
		<g>
			<path class="st5" d="M359.8,121.6c-0.3-1.4-0.4-2.8-0.3-4.2c0.1-1.4,0.2-2.8,0.5-4.2c0.1-0.4,0.2-0.7,0.3-1.1
				c0.1-0.4,0.3-0.7,0.5-1.1c0.2-0.3,0.5-0.7,0.9-1c0.2-0.1,0.5-0.2,0.8-0.3c0.3,0,0.6,0,0.8,0.1c0.3,0.1,0.5,0.2,0.7,0.4
				c0.2,0.1,0.3,0.3,0.5,0.5c0.3,0.3,0.5,0.7,0.6,1c0.2,0.3,0.3,0.7,0.4,1c0.1,0.3,0.2,0.7,0.3,1.1l-1.3-0.1h0
				c0.2-0.5,0.4-0.9,0.7-1.4c0.2-0.4,0.5-0.9,0.8-1.3c0.1-0.2,0.3-0.4,0.5-0.6c0.2-0.2,0.3-0.4,0.6-0.6c0.2-0.2,0.4-0.4,0.7-0.5
				c0.3-0.2,0.7-0.3,1.1-0.3c0.2,0,0.4,0.1,0.6,0.2c0.1,0,0.2,0.1,0.3,0.2c0.1,0.1,0.1,0.1,0.2,0.2c0.3,0.3,0.4,0.6,0.5,0.8
				c0.2,0.5,0.3,1.1,0.4,1.6c0.1,0.5,0.1,1,0.1,1.5c0,0.5,0,1,0,1.5v0l-1.2-0.5c0.1-0.2,0.3-0.3,0.4-0.4c0.1-0.1,0.3-0.3,0.4-0.4
				c0.3-0.2,0.6-0.5,0.9-0.7c0.3-0.2,0.7-0.4,1.1-0.5c0.2-0.1,0.4-0.1,0.7-0.1c0.2,0,0.5,0,0.8,0.1c0.1,0,0.2,0.1,0.4,0.2
				c0.1,0.1,0.2,0.2,0.3,0.3c0.2,0.2,0.3,0.4,0.4,0.6c0.2,0.4,0.2,0.8,0.3,1.2c0.1,0.8,0,1.5-0.1,2.2c-0.2,1.4-0.5,2.8-0.9,4.1
				c-0.4,1.3-0.9,2.7-1.5,3.9c-0.6,1.3-1.3,2.5-2.2,3.6c-0.4,0.6-0.9,1.1-1.5,1.6c-0.3,0.2-0.6,0.5-0.9,0.7
				c-0.2,0.1-0.4,0.2-0.5,0.3c-0.2,0.1-0.4,0.1-0.5,0.2c-0.7,0.2-1.5,0.4-2.2,0.4c-0.8,0-1.6-0.2-2.3-0.5c-0.7-0.3-1.3-0.9-1.8-1.5
				c-0.4-0.6-0.7-1.4-0.8-2.1c0-0.2,0.1-0.3,0.3-0.4c0.2,0,0.3,0.1,0.3,0.2l0,0c0.2,0.6,0.5,1.1,0.9,1.6c0.4,0.4,0.9,0.8,1.5,1
				c0.3,0.1,0.6,0.2,0.9,0.2c0.1,0,0.3,0.1,0.4,0.1c0.1,0,0.3,0,0.4,0c0.6,0,1.2-0.1,1.8-0.3c0.1-0.1,0.3-0.1,0.4-0.2
				c0.1-0.1,0.3-0.1,0.4-0.2c0.3-0.1,0.5-0.3,0.7-0.5c0.5-0.4,0.9-0.9,1.3-1.4c0.8-1,1.5-2.2,2-3.4c0.6-1.2,1.1-2.5,1.5-3.7
				c0.4-1.3,0.7-2.6,0.9-3.9c0.1-0.6,0.1-1.3,0.1-1.9c0-0.3-0.1-0.6-0.2-0.8c0-0.1-0.1-0.2-0.1-0.2c0,0,0-0.1-0.1-0.1
				c-0.1,0-0.4,0-0.6,0.1c-0.2,0.1-0.5,0.2-0.8,0.4c-0.3,0.2-0.5,0.4-0.7,0.6c-0.1,0.1-0.2,0.2-0.4,0.3c-0.1,0.1-0.2,0.2-0.3,0.3
				l0,0c-0.2,0.3-0.7,0.3-1,0c-0.2-0.1-0.2-0.3-0.2-0.5v0c0-0.9,0-1.9-0.1-2.8c-0.1-0.5-0.2-0.9-0.3-1.3c-0.1-0.2-0.2-0.3-0.3-0.4
				c-0.1-0.1-0.1-0.1-0.2-0.1c-0.1,0-0.2,0-0.3,0.1c-0.1,0.1-0.3,0.2-0.4,0.3c-0.3,0.3-0.6,0.7-0.8,1c-0.5,0.8-1,1.6-1.4,2.5
				c-0.1,0.3-0.5,0.5-0.9,0.4c-0.2-0.1-0.3-0.2-0.4-0.4l0-0.1c-0.1-0.3-0.2-0.6-0.3-0.9c-0.1-0.3-0.3-0.6-0.4-0.9
				c-0.1-0.3-0.3-0.5-0.5-0.7c-0.2-0.2-0.4-0.3-0.5-0.4c-0.1,0-0.1,0-0.2,0c-0.1,0-0.1,0-0.2,0.1c-0.1,0.1-0.3,0.3-0.5,0.5
				c-0.1,0.2-0.3,0.5-0.4,0.8c-0.1,0.3-0.2,0.6-0.3,0.9c-0.2,0.6-0.3,1.3-0.4,1.9c-0.1,0.7-0.2,1.3-0.2,2c-0.1,1.3-0.2,2.7-0.4,4
				l0,0c0,0.2-0.2,0.3-0.4,0.3C359.9,121.8,359.8,121.7,359.8,121.6"/>
		</g>
	</g>
</g>
</svg>
